<svg id="logo-poziom" xmlns="http://www.w3.org/2000/svg" width="190" height="47.816" viewBox="0 0 190 47.816">
    <defs>
        <style>
            .cls-1{fill:#b27342}.cls-2{fill:#322818}
        </style>
    </defs>
    <g id="Group_1" data-name="Group 1">
        <path id="Path_1" data-name="Path 1" class="cls-1" d="M163.888 230.5a36.885 36.885 0 0 0-10.071-9.242.377.377 0 0 0-.518.118.372.372 0 0 0 .119.515 36.135 36.135 0 0 1 9.867 9.055 35.516 35.516 0 0 1 7.133 21.073h-2.688a3.054 3.054 0 0 0-.165-3.138 2.406 2.406 0 0 0 .682-1.668 2.368 2.368 0 0 0-.976-1.925 2.429 2.429 0 0 0-1.24-.465 3.256 3.256 0 0 0-6.342 0 2.431 2.431 0 0 0-1.24.466 2.369 2.369 0 0 0-.976 1.925 2.4 2.4 0 0 0 .682 1.668 3.052 3.052 0 0 0-.472 1.176h-5.22v-9.109h14.273a.373.373 0 1 0 0-.747h-7.394l-3.15-3.086a.376.376 0 0 0-.264-.108h-.787l-7.181-5.908h13.34a.373.373 0 1 0 0-.747h-14.247L134.5 220.011a.377.377 0 0 0-.48 0l-12.549 10.337h-14.31a.373.373 0 1 0 0 .747h13.409l-7.181 5.916h-.789a.376.376 0 0 0-.264.108l-3.15 3.086h-7.7a.373.373 0 1 0 0 .747h14.58v9.109h-5.289a3.052 3.052 0 0 0-.472-1.176 2.4 2.4 0 0 0 .682-1.668 2.368 2.368 0 0 0-.976-1.925 2.431 2.431 0 0 0-1.24-.465 3.26 3.26 0 0 0-4.315-2.31.374.374 0 1 0 .265.7 2.5 2.5 0 0 1 3.36 2.025.373.373 0 0 0 .4.328 1.661 1.661 0 0 1 1.758 1.649 1.662 1.662 0 0 1-.666 1.321.372.372 0 0 0-.058.542 2.313 2.313 0 0 1 .563 1.515 2.345 2.345 0 0 1-4.056 1.586.385.385 0 0 0-.042-.036v-1.108l1.428-1.419a.372.372 0 0 0 0-.528.378.378 0 0 0-.532 0l-.9.891v-1.99a.376.376 0 0 0-.752 0v3.279l-1.38-1.372a.378.378 0 0 0-.532 0 .373.373 0 0 0 0 .528l1.818 1.806a2.343 2.343 0 0 1-3.413-.1 2.312 2.312 0 0 1-.024-3.051.371.371 0 0 0-.058-.542 1.662 1.662 0 0 1-.666-1.321 1.63 1.63 0 0 1 .672-1.325 1.65 1.65 0 0 1 1.087-.324.375.375 0 0 0 .4-.328 2.473 2.473 0 0 1 .438-1.128.372.372 0 0 0-.09-.52.378.378 0 0 0-.524.09 3.224 3.224 0 0 0-.513 1.144 2.43 2.43 0 0 0-1.241.466 2.368 2.368 0 0 0-.976 1.925 2.4 2.4 0 0 0 .682 1.668 3.054 3.054 0 0 0-.165 3.138h-2.696a35.52 35.52 0 0 1 7.136-21.078 35.972 35.972 0 0 1 29.051-14.516 36.435 36.435 0 0 1 16.983 4.2.377.377 0 0 0 .508-.154.372.372 0 0 0-.155-.505 37.2 37.2 0 0 0-17.336-4.286 36.72 36.72 0 0 0-16.856 4.037 37.217 37.217 0 0 0-12.8 10.78 36.265 36.265 0 0 0-7.287 21.9.375.375 0 0 0 .376.373h3.617a3.1 3.1 0 0 0 3.941.355v4.728a.376.376 0 0 0 .752 0v-4.728a3.1 3.1 0 0 0 3.942-.356h21.872l-3.7 10.224a.373.373 0 0 0 .226.478.38.38 0 0 0 .127.022.375.375 0 0 0 .353-.247l1.26-3.48h8.421l1.26 3.48a.376.376 0 0 0 .707-.253l-3.7-10.229h12.2a.373.373 0 1 0 0-.747H110.47a3.036 3.036 0 0 0 .345-1.215h46.83a3.035 3.035 0 0 0 .345 1.215h-6.19a.373.373 0 1 0 0 .747h6.74a3.1 3.1 0 0 0 3.941.355v4.728a.376.376 0 0 0 .751 0v-4.728a3.1 3.1 0 0 0 3.941-.355h3.627a.374.374 0 0 0 .376-.373 36.265 36.265 0 0 0-7.288-21.898zm-12.177 19.56h-2.048v-9.109h2.048zm-17.447-29.276 19.7 16.227h-2.029L134.5 223.145a.379.379 0 0 0-.47 0l-8.769 6.974a.371.371 0 0 0-.059.525.377.377 0 0 0 .528.058l8.534-6.787 16.468 13.1H117.8l6.075-4.831a.372.372 0 0 0 .059-.525.377.377 0 0 0-.528-.058l-6.808 5.414h-2.029zm-21.509 16.974h43.019l2.5 2.446H129.79a.373.373 0 1 0 0 .747h19.122v9.109H136.58v-5.207a.375.375 0 0 0-.376-.374h-3.879a.375.375 0 0 0-.376.374v5.207h-12.332v-9.109h7.716a.373.373 0 1 0 0-.747h-17.075zm4.063 3.193h2.048v9.109h-2.048zm21.382 18.074h-7.88l2.265-6.255h3.35zm-5.5-8.964v-4.833h3.127v4.833zm30.577 2.119a.36.36 0 0 0-.043-.037v-1.108l1.428-1.419a.372.372 0 0 0 0-.528.378.378 0 0 0-.532 0l-.9.891v-1.99a.376.376 0 0 0-.751 0v3.279L161.1 249.9a.378.378 0 0 0-.532 0 .372.372 0 0 0 0 .528l1.817 1.806a2.343 2.343 0 0 1-3.274.048.373.373 0 0 0-.213-.228 2.307 2.307 0 0 1-.518-1.456v-.071a.363.363 0 0 0 .012-.09.348.348 0 0 0-.005-.053 2.308 2.308 0 0 1 .553-1.3.372.372 0 0 0-.058-.542 1.66 1.66 0 0 1-.666-1.321 1.63 1.63 0 0 1 .672-1.325 1.649 1.649 0 0 1 1.086-.324.376.376 0 0 0 .4-.328 2.5 2.5 0 0 1 4.963 0 .374.374 0 0 0 .4.328 1.661 1.661 0 0 1 1.758 1.649 1.661 1.661 0 0 1-.666 1.321.372.372 0 0 0-.058.542 2.311 2.311 0 0 1 .563 1.515 2.345 2.345 0 0 1-4.056 1.586z" transform="translate(-97.29 -215.682)"/>
        <path id="Path_2" data-name="Path 2" class="cls-1" d="M199.924 272.71h4.79a.375.375 0 0 0 .376-.374v-4.76a.375.375 0 0 0-.376-.374h-4.79a.375.375 0 0 0-.376.374v4.76a.375.375 0 0 0 .376.374zm.376-4.761h4.038v4.014H200.3z" transform="translate(-169.533 -252.173)"/>
        <path id="Path_3" data-name="Path 3" class="cls-1" d="M228.467 272.71h4.79a.375.375 0 0 0 .376-.374v-4.76a.375.375 0 0 0-.376-.374h-4.79a.375.375 0 0 0-.376.374v4.76a.375.375 0 0 0 .376.374zm.376-4.761h4.038v4.014h-4.038z" transform="translate(-189.698 -252.173)"/>
        <path id="Path_4" data-name="Path 4" class="cls-1" d="M242.639 312.465h4.79a.375.375 0 0 0 .376-.373v-4.761a.375.375 0 0 0-.376-.373h-4.79a.375.375 0 0 0-.376.373v4.761a.375.375 0 0 0 .376.373zm.376-4.76h4.038v4.013h-4.038z" transform="translate(-199.71 -280.331)"/>
        <path id="Path_5" data-name="Path 5" class="cls-1" d="M185.142 307.331v4.761a.375.375 0 0 0 .376.373h4.79a.375.375 0 0 0 .376-.373v-4.761a.375.375 0 0 0-.376-.373h-4.79a.375.375 0 0 0-.376.373zm.751.374h4.039v4.013h-4.039z" transform="translate(-159.355 -280.331)"/>
        <path id="Path_6" data-name="Path 6" class="cls-1" d="M153.35 352.128a.375.375 0 0 0-.376-.373h-21.58a.373.373 0 1 0 0 .747h21.58a.375.375 0 0 0 .376-.374z" transform="translate(-121.118 -312.06)"/>
        <path id="Path_7" data-name="Path 7" class="cls-1" d="M261.307 351.755H239.8a.373.373 0 1 0 0 .747h21.511a.373.373 0 1 0 0-.747z" transform="translate(-197.702 -312.06)"/>
        <path id="Path_8" data-name="Path 8" class="cls-1" d="M218.3 352.5h2.378a.373.373 0 1 0 0-.747H218.3a.373.373 0 1 0 0 .747z" transform="translate(-182.519 -312.06)"/>
    </g>
    <g id="Group_2" data-name="Group 2" transform="translate(83.485 13.35)">
        <path id="Path_9" data-name="Path 9" class="cls-2" d="M389.571 277.531v1.139a.35.35 0 0 1-.35.348h-1.144a.349.349 0 0 1-.35-.348v-1.238c0-1.561-.623-2.5-2.045-2.5-1.4 0-2.045.942-2.045 2.5v9.168c0 1.562.648 2.5 2.045 2.5 1.422 0 2.045-.942 2.045-2.5v-3.47h-1.447a.349.349 0 0 1-.35-.348v-1.038a.349.349 0 0 1 .35-.348h2.94a.35.35 0 0 1 .35.348v4.756c0 2.627-1.247 4.362-3.94 4.362-2.668 0-3.915-1.735-3.915-4.362v-8.972c0-2.627 1.247-4.362 3.915-4.362 2.694.003 3.941 1.734 3.941 4.365z" transform="translate(-381.715 -269.749)"/>
        <path id="Path_10" data-name="Path 10" class="cls-2" d="M420.912 277.531c0-2.652 1.322-4.362 3.99-4.362 2.693 0 4.015 1.71 4.015 4.362v8.969c0 2.627-1.322 4.362-4.015 4.362-2.668 0-3.99-1.735-3.99-4.362zm1.92 9.071c0 1.586.673 2.5 2.07 2.5 1.422 0 2.07-.917 2.07-2.5v-9.171c0-1.561-.648-2.5-2.07-2.5-1.4 0-2.07.942-2.07 2.5z" transform="translate(-409.407 -269.749)"/>
        <path id="Path_11" data-name="Path 11" class="cls-2" d="M468.025 268.8v.523a.349.349 0 0 1-.35.348h-1.145a.349.349 0 0 1-.35-.348v-.223c0-1.561-.6-2.478-2-2.478s-2 .917-2 2.454c0 3.891 5.861 4.263 5.861 9.146 0 2.627-1.272 4.338-3.94 4.338s-3.915-1.71-3.915-4.338v-.643a.349.349 0 0 1 .35-.348h1.119a.349.349 0 0 1 .35.348v.742c0 1.562.648 2.478 2.045 2.478s2.045-.917 2.045-2.478c0-3.866-5.836-4.238-5.836-9.121 0-2.707 1.276-4.375 3.956-4.337a3.912 3.912 0 0 1 3.81 3.937zm-1.875-6.776-1.686 1.856a.352.352 0 0 1-.26.115h-.534a.348.348 0 0 1-.291-.542l1.251-1.857a.351.351 0 0 1 .291-.154h.969a.348.348 0 0 1 .26.584z" transform="translate(-437.159 -261.444)"/>
        <path id="Path_12" data-name="Path 12" class="cls-2" d="M506.737 269.227v1.213a.349.349 0 0 1-.35.349h-1.144a.35.35 0 0 1-.351-.349v-1.312c0-1.561-.623-2.5-2.045-2.5-1.4 0-2.045.942-2.045 2.5v9.172c0 1.562.648 2.5 2.045 2.5 1.422 0 2.045-.942 2.045-2.5v-1.907a.349.349 0 0 1 .351-.348h1.144a.349.349 0 0 1 .35.348v1.807c0 2.627-1.247 4.362-3.94 4.362-2.668 0-3.915-1.735-3.915-4.362v-8.972c0-2.627 1.247-4.362 3.915-4.362 2.693-.002 3.94 1.734 3.94 4.361zm-1.925-7.2-1.687 1.856a.351.351 0 0 1-.26.115h-.554a.348.348 0 0 1-.29-.544l1.269-1.856a.351.351 0 0 1 .29-.153h.971a.348.348 0 0 1 .261.581z" transform="translate(-464.49 -261.444)"/>
        <path id="Path_13" data-name="Path 13" class="cls-2" d="M559.19 291.114h-2.06a.35.35 0 0 1-.347-.3l-2.3-16.653a.349.349 0 0 1 .347-.4h1.188a.35.35 0 0 1 .347.3l2 14.471 1.905-14.444a.35.35 0 0 1 .347-.3h1.3a.35.35 0 0 1 .348.3l1.881 14.469 1.93-14.494a.35.35 0 0 1 .348-.3h.987a.349.349 0 0 1 .347.395l-2.274 16.653a.35.35 0 0 1-.348.3h-1.958a.35.35 0 0 1-.347-.3l-1.628-11.473-1.677 11.475a.35.35 0 0 1-.336.301z" transform="translate(-503.771 -270.17)"/>
        <path id="Path_14" data-name="Path 14" class="cls-2" d="M631.043 273.764c2.718 0 3.966 1.636 3.966 4.313v8.749c0 2.652-1.247 4.288-3.966 4.288H627.3a.349.349 0 0 1-.35-.348v-16.654a.349.349 0 0 1 .35-.348zm-.025 15.59c1.4 0 2.07-.867 2.07-2.454v-8.923c0-1.586-.673-2.454-2.095-2.454H628.9v13.83z" transform="translate(-554.97 -270.17)"/>
        <path id="Path_15" data-name="Path 15" class="cls-2" d="M666.745 277.531c0-2.652 1.322-4.362 3.99-4.362 2.693 0 4.015 1.71 4.015 4.362v8.969c0 2.627-1.322 4.362-4.015 4.362-2.668 0-3.99-1.735-3.99-4.362zm1.92 9.071c0 1.586.673 2.5 2.07 2.5 1.421 0 2.07-.917 2.07-2.5v-9.171c0-1.561-.648-2.5-2.07-2.5-1.4 0-2.07.942-2.07 2.5z" transform="translate(-583.082 -269.749)"/>
        <path id="Path_16" data-name="Path 16" class="cls-2" d="M713.047 291.089h-1.3a.35.35 0 0 1-.343-.277l-2.835-13.528v13.482a.35.35 0 0 1-.351.348h-.995a.35.35 0 0 1-.351-.348v-16.654a.349.349 0 0 1 .351-.348h2.082a.35.35 0 0 1 .343.278l2.811 13.577 2.712-13.574a.35.35 0 0 1 .344-.28h2.08a.349.349 0 0 1 .351.348v16.653a.349.349 0 0 1-.351.348h-1.144a.35.35 0 0 1-.35-.348v-13.607l-2.712 13.648a.35.35 0 0 1-.342.282z" transform="translate(-611.434 -270.17)"/>
    </g>
</svg>
