<svg xmlns="http://www.w3.org/2000/svg" width="28.6" height="28.6" viewBox="0 0 28.6 28.6">
    <defs>
        <style>
            .cls-1{fill:#d79e77}
        </style>
    </defs>
    <g id="ig">
        <path id="Path_59" data-name="Path 59" class="cls-1" d="M131.666 124.544a6.951 6.951 0 1 0 6.951 6.951 6.951 6.951 0 0 0-6.951-6.951zm0 11.463a4.512 4.512 0 1 1 4.512-4.512 4.51 4.51 0 0 1-4.512 4.512z" transform="translate(-117.361 -117.201)"/>
        <path id="Path_60" data-name="Path 60" class="cls-1" d="M20.191.1C17.56-.02 11.043-.014 8.41.1a8.546 8.546 0 0 0-6 2.313C-.342 5.166.01 8.872.01 14.307c0 5.563-.31 9.183 2.4 11.891 2.761 2.76 6.521 2.4 11.891 2.4 5.51 0 7.412 0 9.36-.751 2.649-1.028 4.649-3.4 4.844-7.649.124-2.632.117-9.148 0-11.782C28.268 3.4 25.574.351 20.191.1zm4.165 24.276c-1.8 1.8-4.3 1.642-10.091 1.642-5.958 0-8.347.088-10.091-1.66-2.008-2-1.644-5.208-1.644-10.073 0-6.585-.676-11.322 5.932-11.66 1.518-.054 1.965-.071 5.787-.071l.054.036c6.35 0 11.333-.665 11.632 5.942.068 1.507.083 1.96.083 5.776 0 5.889.111 8.293-1.661 10.073z" transform="translate(.005 -.013)"/>
        <circle id="Ellipse_5" data-name="Ellipse 5" class="cls-1" cx="1.81" cy="1.81" transform="translate(20.066 4.914)" r="1.81"/>
    </g>
</svg>
