<svg xmlns="http://www.w3.org/2000/svg" width="140" height="150" viewBox="0 0 140 150">
    <defs>
        <clipPath id="clip-path">
            <path id="Rectangle_13" data-name="Rectangle 13" style="fill:#fff" d="M0 0h140v150H0z"/>
        </clipPath>
        <style>
            .cls-4{fill:#b27342}
        </style>
    </defs>
    <g id="leaves" style="opacity:.35">
        <g id="Mask_Group_1" data-name="Mask Group 1" style="clip-path:url(#clip-path)">
            <g id="Group_20" data-name="Group 20" transform="rotate(90 82.76 82.728)">
                <g id="Group_19" data-name="Group 19">
                    <path id="Path_211" data-name="Path 211" class="cls-4" d="M34.277 123.553a.471.471 0 0 1-.3-.125 1.163 1.163 0 0 1-.29-.412 12.547 12.547 0 0 1-.492-1.359c-.079-.247-.152-.478-.232-.707a35.046 35.046 0 0 1-.582-22.186 33.139 33.139 0 0 1 6.09-11.66l.329-.4-.5.148a3.448 3.448 0 0 0-1.162.52A56.47 56.47 0 0 1 24.7 94.406 31.02 31.02 0 0 1 12.1 97.2a29.125 29.125 0 0 1-6.543-.759c-1.278-.294-2.557-.666-3.795-1.026-.581-.168-1.162-.338-1.694-.473L0 94.881c.029-.1.052-.208.076-.316.058-.265.117-.538.252-.634q1.339-.944 2.674-1.9l.3-.213c3.33-2.37 6.774-4.82 10.289-7.073a17.81 17.81 0 0 1 9.769-2.825 23.877 23.877 0 0 1 6.242.884 56.194 56.194 0 0 1 6.52 2.254 5.6 5.6 0 0 0 2.133.465 4.443 4.443 0 0 0 2.884-1.113q1.278-1.048 2.566-2.084l.029-.024c1.9-1.536 3.862-3.123 5.743-4.744 1.207-1.041 2.316-2.142 3.49-3.307.529-.525 1.047-1.04 1.578-1.552l.185-.179-.245-.083a1.906 1.906 0 0 1-.154-.061.527.527 0 0 0-.206-.06.22.22 0 0 0-.084.016A39.7 39.7 0 0 1 39.2 74.889a67.12 67.12 0 0 1-4.049-.128q-.122-.008-.236-.008a1.413 1.413 0 0 0-1.428.879 2.127 2.127 0 0 1-1.935 1.068 2.476 2.476 0 0 1-.713-.1 2.2 2.2 0 0 1-.8-.427 1.922 1.922 0 0 1-.694-1.508 2.384 2.384 0 0 1 1.733-2.153 2.228 2.228 0 0 1 .583-.073 2.712 2.712 0 0 1 1.663.548 1.176 1.176 0 0 1 .337.442 1.577 1.577 0 0 0 .422.624 1.518 1.518 0 0 0 1.025.3h.163a50.912 50.912 0 0 0 22.584-5.837 11.285 11.285 0 0 0 3.32-3.038c.338-.406.686-.825 1.051-1.22a44.731 44.731 0 0 0 3.556-4.39l.015-.021-.2-.221-.24.128a12.43 12.43 0 0 0-.481.263c-7.65 4.452-14.366 6.752-21.135 7.241-1.357.1-2.727.147-4.072.147a53.146 53.146 0 0 1-15.14-2.172l-.189-.054a2.231 2.231 0 0 1-.835-.353.922.922 0 0 1-.307-.631l.65-.753c.582-.38 1.174-.763 1.766-1.146 1.3-.838 2.623-1.7 3.9-2.581 3.454-2.389 7.751-5.363 12.556-6.983a27.915 27.915 0 0 1 8.907-1.536 23.735 23.735 0 0 1 7.953 1.365 60.193 60.193 0 0 1 6.322 2.81l.045.022c.961.471 1.954.958 2.969 1.427l.115.053L79.9 42.125l-.414-.341-.09.041a38.205 38.205 0 0 1-15.83 3.737q-.331 0-.66-.007h-.107l-.042.1c-.566 1.343-1.113 1.842-2.019 1.842a2.9 2.9 0 0 1-.343-.022 2.1 2.1 0 0 1-1.128-.41 1.348 1.348 0 0 1-.448-.864 2.167 2.167 0 0 1 .535-1.644l.026.186c.041.285.061.544.078.772a2.469 2.469 0 0 0 .258 1.18.781.781 0 0 0 .15.168 1.5 1.5 0 0 0 .958.3 1.749 1.749 0 0 0 .465-.06.746.746 0 0 0 .551-.441 2.115 2.115 0 0 0-.284-1.883 1.521 1.521 0 0 0-.961-.194h-.412c-.183 0-.4 0-.635-.021l-.188-.015a2.053 2.053 0 0 1 .654-.52 1.7 1.7 0 0 1 .75-.195 2.1 2.1 0 0 1 1.336.622 8.586 8.586 0 0 1 .675.651l.049.052.737-.159c.46-.107.936-.218 1.409-.308a45.709 45.709 0 0 0 15.974-6.086 14 14 0 0 0 3.956-3.471c1.053-1.408 2.144-2.825 3.2-4.2l.217-.281q.975-1.267 1.945-2.537c.243-.319.462-.659.716-1.053.129-.2.267-.414.423-.649l.015-.023-.213-.21-4.383 2.96a68.27 68.27 0 0 1-18.458 9.092 52.033 52.033 0 0 1-15.233 1.756h-1.08c-.225 0-.45.005-.676.011s-.436.01-.655.01a8.47 8.47 0 0 1-.818-.034 1.233 1.233 0 0 1-.67-.231c-.262-.222-.22-.6.116-1.034a10.092 10.092 0 0 1 1.329-1.45q1.83-1.595 3.655-3.2l.051-.044c3.657-3.2 7.438-6.515 11.231-9.683a20.916 20.916 0 0 1 10.4-5.056 27.818 27.818 0 0 1 4.02-.279 46 46 0 0 1 9.428 1.142c1.831.381 3.7.637 5.512.884l.519.071a.917.917 0 0 0 .127.008 1.53 1.53 0 0 0 .989-.393c1.019-1.02 2.04-2.071 3.027-3.088 1.705-1.757 3.454-3.559 5.258-5.267 2.481-2.35 5.785-5.412 9.337-8.25a33.361 33.361 0 0 1 6.236-3.74A2.825 2.825 0 0 1 121.617 0a.76.76 0 0 1 .517.187 3.722 3.722 0 0 1 .766 1.255 4.643 4.643 0 0 0 .356.611c.038.058.078.118.117.181l-.108.068a4.726 4.726 0 0 1-.468.273 52.045 52.045 0 0 0-12.461 8.54 3.134 3.134 0 0 0-.891 1.765 18.2 18.2 0 0 0 1.081 9.159 23.562 23.562 0 0 1 1.316 4.176c.092.508.189 1.018.286 1.528l.01.056a39.521 39.521 0 0 1 .924 7.2c.016 5.5-2.462 10.371-4.623 14-1.362 2.284-2.688 4.64-3.97 6.919l-.025.044a503.444 503.444 0 0 1-2.4 4.235 1.613 1.613 0 0 1-.481.442l-.149.108a5.149 5.149 0 0 0-.11-.148 1.316 1.316 0 0 1-.3-.542l-.056-.42c-.424-3.177-.863-6.459-1.211-9.7-1.044-9.669-.2-17.939 2.587-25.285.855-2.255 1.894-4.426 2.9-6.525.429-.9.871-1.819 1.275-2.7l.011-.024-.236-.179-.02.017c-9.371 7.784-14.231 18.454-14.857 32.617l-.007.156.409.018a2.087 2.087 0 0 1 .26.018 2.337 2.337 0 0 1 1.133.5 1.881 1.881 0 0 1 .663 1.269 2.612 2.612 0 0 1-1.68 2.738 2.283 2.283 0 0 1-.748.127 2.064 2.064 0 0 1-1.336-.474 1.851 1.851 0 0 1-.352-.4 2.34 2.34 0 0 1 .252-2.815 1.808 1.808 0 0 0 .568-1.807A29.039 29.039 0 0 1 91.925 33.4l.724-2.029-.458-.233L81.707 45.03l.067.094c.569.794 1.142 1.567 1.649 2.248 1.136 1.533 2.2 2.968 3.138 4.479 5.38 8.67 6.494 17.021 3.406 25.53-1.129 3.112-2.165 6.283-3.167 9.349l-.014.042c-.592 1.81-1.2 3.681-1.826 5.514a1.667 1.667 0 0 1-.483.595c-.069.064-.133.123-.193.183l-.344-.287a1.16 1.16 0 0 1-.37-.445q-.746-2.11-1.5-4.218l-.051-.144c-1.7-4.786-3.468-9.736-5.058-14.671a30.678 30.678 0 0 1 .082-18.833c.284-.913.6-1.833.9-2.723l.475-1.4-.265-.143-1.03 1.3C72.19 57.7 67.088 64.123 61.17 69.586l-.093.086.065.109c.191.322.378.629.559.927.376.617.731 1.2 1.049 1.8 3.149 5.926 4.53 10.8 4.481 15.813a31.119 31.119 0 0 1-3.033 12.7c-1.509 3.323-3.219 6.623-4.873 9.815q-.83 1.6-1.649 3.2a2.276 2.276 0 0 1-.586.629c-.072.06-.143.121-.212.183a8.655 8.655 0 0 0-.182-.206 2.15 2.15 0 0 1-.5-.716l-.257-.812c-.9-2.838-1.815-5.742-2.606-8.626a43.27 43.27 0 0 1-1.667-11.37A32.293 32.293 0 0 1 58.005 73l.018-.024-.224-.21-.023.019c-.572.48-1.12.955-1.656 1.421-1.148 1-2.231 1.937-3.394 2.785-3.37 2.459-6.844 4.865-10.2 7.193l-.905.627a1.028 1.028 0 0 0-.459 1.447 75.839 75.839 0 0 1 1.654 4.743c1.831 5.853 1.917 10.7.272 15.249a108.052 108.052 0 0 1-7.209 14.936l-1.06 1.939a.757.757 0 0 1-.47.424.407.407 0 0 1-.072.004zm-.017-1.667.63.18.753-1.426c.806-1.524 1.639-3.1 2.443-4.681a1.065 1.065 0 0 0-.092-.978 51.267 51.267 0 0 0-1.714-1.933l-.886-.972zm.344-9.778c-.222.32-.437.623-.644.915l-.062.088c-.6.843-1.1 1.554-1.57 2.31a1.694 1.694 0 0 0-.068 1.2c.274 1.074.582 2.165.91 3.32l.4 1.431.3-.023 1.022-9.16-.276-.1zm.164-7.7a617.058 617.058 0 0 0-3.125 3.678 1.033 1.033 0 0 0-.226.68c.106 1.491.226 2.982.353 4.567l.158 1.97.248-.29a17 17 0 0 0 3.806-11.6v-.422zm1.847-.8c-.09.61-.2 1.244-.311 1.857a30.459 30.459 0 0 0-.592 4.863 5.457 5.457 0 0 0 1.034 2.648c.16.268.318.534.458.8a3.134 3.134 0 0 0 .754.829c.159.139.318.278.479.438l.16.158.671-1.425c.6-1.268 1.219-2.579 1.8-3.9a1.108 1.108 0 0 0-.134-.867l.722-.1.43-1.408a186.73 186.73 0 0 0 1.284-4.319 1.347 1.347 0 0 0-.31-.986c-1.179-1.628-2.4-3.279-3.573-4.876l-1.385-1.88-.344 1.738a133.311 133.311 0 0 0-.793 4.195 2.268 2.268 0 0 0 .29 1.392c.88 1.548 1.8 3.093 2.684 4.587l.879 1.484c-1-1.372-2-2.719-2.976-4.023l-1.174-1.575zm20.3 9.406.565.015.714-1.391c.679-1.32 1.449-2.815 2.163-4.278a1.22 1.22 0 0 0-.078-1.069c-.877-1.255-1.807-2.523-2.707-3.751l-1.238-1.693zm-1.754-12.065c-.444.639-.875 1.259-1.3 1.887a.819.819 0 0 0-.131.61q.79 2.9 1.605 5.8l.4 1.453.441-.151-.3-10.643zm-18.467-5.291c-.568.67-1.191 1.406-1.82 2.116-.179.2-.383.391-.58.574a6.3 6.3 0 0 0-.815.858l-.144.2a5.481 5.481 0 0 0-1.087 1.969c-.289 1.321-.47 2.642-.663 4.042l-.011.081c-.074.543-.15 1.092-.234 1.649l-.057.382.309-.233c4.574-3.453 5.616-8.366 6.013-12.261l.051-.5zm20.432-4.67-.011.134a99.752 99.752 0 0 1-.2 2.168 51.647 51.647 0 0 0-.328 5.344 7.771 7.771 0 0 0 1.2 3.468 28.691 28.691 0 0 0 1.892 2.836c.286.394.571.787.848 1.186l.041.057.565-.005.71-1.559c.771-1.69 1.561-3.422 2.289-5.148.145-.345-.246-.938-.487-1.178l-.562-.557a25.78 25.78 0 0 1-5.4-6.692l-.048-.1zm-.923-.575c-.151.259-.3.522-.442.784l-.023.041a20.578 20.578 0 0 1-1.1 1.829c-.369.526-.793 1.022-1.2 1.5-.264.308-.529.617-.777.931a.991.991 0 0 0-.188.692c.217 1.53.447 3.059.7 4.716l.284 1.883.226-.273c2.217-2.673 2.367-5.665 2.513-8.557a29.712 29.712 0 0 1 .305-3.442v-.027l-.284-.1zm-16.33-1.84c-.478 1.823-.969 3.7-1.424 5.554a1.463 1.463 0 0 0 .258 1.013c1.134 1.8 2.388 3.748 3.945 6.138a1.007 1.007 0 0 0 .2.217c.059.05.122.1.188.145s.134.1.19.147l.187.158.068-.235c.949-3.3-.769-10.216-2.9-14.733l-.187-.394zm-.112-2.147a30.953 30.953 0 0 0-6.879 12.414l-.164.513.416-.344c4.4-3.642 5.955-8.332 6.9-12.44L40.16 86zm18.534-3.521c-.309 2.175-.6 4.229-.867 6.288a2.157 2.157 0 0 0 .264 1.072 17.751 17.751 0 0 0 4.316 5.915c.49.455.946.928 1.473 1.476.259.27.527.548.817.842l.18.183.082-.243a32.473 32.473 0 0 0 1.919-8.207 1.133 1.133 0 0 0-.322-.857q-.419-.329-.82-.669a27.839 27.839 0 0 1-6.453-7.933l-.229-.415zM21.127 90.46c-.588.137-1.188.268-1.793.4l-.169.037c-1.692.37-3.441.752-5.158 1.265a5.847 5.847 0 0 0-2.145 1.5l-.248.234a14.225 14.225 0 0 0-1.328 1.493l-.033.041c-.188.232-.382.47-.588.712l-.156.182.23.071c.112.034.21.071.3.1a1.452 1.452 0 0 0 .541.126c1.626-.026 3.286-.053 4.915-.141a1.731 1.731 0 0 0 1.086-.528c1.2-1.3 2.383-2.636 3.532-3.929l1.5-1.683zM1.962 94.682l-.187.434-.015.037 1.351.26c1.875.36 3.749.721 5.626 1.067a.329.329 0 0 0 .063.006.781.781 0 0 0 .509-.262c.719-.825 1.429-1.658 2.137-2.489l.975-1.144zm28.4-6.37a19.415 19.415 0 0 1-3 .687 11.2 11.2 0 0 0-5.137 1.8 42.144 42.144 0 0 0-3.585 3.221l-.028.028c-.5.482-1.01.981-1.525 1.458l-.087.088.465.78.123-.043c.7-.248 1.424-.483 2.121-.711a41.693 41.693 0 0 0 5.039-1.894 7.478 7.478 0 0 0 2.126-1.826c.337-.369.682-.746 1.042-1.068s.71-.614 1.062-.907l.03-.025c.511-.427 1.028-.858 1.521-1.326l.019-.019-.155-.253zm27.2-7.049c-.289.339-.581.72-.864 1.09a12.793 12.793 0 0 1-2.286 2.5c-1.8 1.373-1.9 3.148-2 5.029a87.295 87.295 0 0 0-.1 3.484c-.009.541-.038 1.928-.038 1.928v.083l.28-.281c4.272-4.288 5.072-9.586 5.292-13.722l.025-.466zM7.227 89.917a1.278 1.278 0 0 0-.682.221 57.379 57.379 0 0 0-5.033 3.921l-.434.386 11.576-2.319-1.659-.7c-1.234-.523-2.38-1.01-3.536-1.467a.629.629 0 0 0-.232-.042zm29.2-3.2c-3.956.643-6.835 3.007-9.677 5.58l-.094.086.364.627 9.869-5.7-.355-.61zm-23.265-.76a3.46 3.46 0 0 0-1.894.875c-.787.575-1.611 1.129-2.484 1.716-.409.275-1.456.986-1.456.986l-.049.033.254.115c2.093.959 4.069 1.865 6.248 1.865a7.61 7.61 0 0 0 1.9-.239c1.387-.353 2.757-.661 4.082-.959.569-.128 2.036-.463 2.036-.463l.1-.023-7.156-3.1-.164-.044a2.371 2.371 0 0 0-.315-.32 1.667 1.667 0 0 0-1.102-.445zm68.566-6.197a130.3 130.3 0 0 0-.908 2.213 1.066 1.066 0 0 0-.041.7c.64 1.758 1.292 3.512 1.945 5.265l.569 1.529.526-.15-1.469-11.05zm-61.212 3.076a3.29 3.29 0 0 0-1.084.2c-1.334.468-2.683.964-3.988 1.443l-1.777.651.01.693 1.666.786c1.167.554 2.375 1.127 3.585 1.663a11.191 11.191 0 0 0 4.6 1.042 10.245 10.245 0 0 0 3.273-.55 30.629 30.629 0 0 1 3.068-.8l.076-.017c.384-.086.751-.169 1.093-.253l.486-.121-2.358-.9a359.429 359.429 0 0 1-5.259-2.041 4.858 4.858 0 0 1-1.341-.754 2.492 2.492 0 0 1-.2-.186 3.369 3.369 0 0 0-.266-.251 2.371 2.371 0 0 0-1.584-.605zm63.931 6.43.295.029.417-1.222c.51-1.493.992-2.9 1.458-4.323a.858.858 0 0 0-.16-.68c-.757-1.035-1.525-2.062-2.333-3.143l-1.095-1.466zM60.63 70.593c-.151.783-.3 1.55-.451 2.3l-.027.137c-.436 2.2-.844 4.261-1.169 6.347a3.482 3.482 0 0 0 .652 2.043 28.2 28.2 0 0 0 6.108 7.172c.174.147.725.6.725.6l.052.043.011-.317c.252-7.157-2.762-13.235-5.608-18.371l-.211-.382zM23.892 82.632a12.167 12.167 0 0 0-1.729.121l-.407.058.341.229c3.648 2.451 7.728 3.915 10.914 3.915a7.988 7.988 0 0 0 3.77-.852l.318-.168-.34-.119c-6.631-2.321-10.118-3.184-12.867-3.184zm35.647-10.6c-2.806 2.643-5.656 8.518-6.354 13.1l-.083.548 1.528-1.788c1.111-1.3 2.252-2.634 3.38-3.978a1.933 1.933 0 0 0 .373-.822c.371-1.76.73-3.523 1.1-5.318l.424-2.08zm22.714-3.556a18.184 18.184 0 0 0 4.51 14.382l.178.207.6-1.684c.559-1.557 1.087-3.027 1.587-4.52a1.053 1.053 0 0 0-.336-.941 399.5 399.5 0 0 0-.487-.4 22.825 22.825 0 0 1-5.757-7.092l-.235-.458zm-.985 1.4c-.2.473-.391.966-.559 1.4a19.547 19.547 0 0 1-1.379 3.047 3.586 3.586 0 0 0-.221 3.554c.327.78.595 1.59.878 2.448.132.4.266.806.412 1.227l.132.379.163-.367c1.768-3.971 1.4-7.933.877-11.651l-.08-.564zM121.561.607a2.277 2.277 0 0 0-.955.3 28.931 28.931 0 0 0-5.494 3.293c-3.276 2.672-6.6 5.595-10.173 8.934a152.05 152.05 0 0 0-15.08 16.441c-1.849 2.326-3.618 4.775-5.33 7.144l-.041.056a384.437 384.437 0 0 1-2.694 3.695l-1.026 1.385c-1.759 2.377-3.754 5.071-5.722 7.6l-.416.536c-2.867 3.693-5.83 7.509-8.878 11.153-2.959 3.537-6.1 6.961-8.813 9.893-1.421 1.536-2.935 3.037-4.4 4.488l-.072.071c-.676.671-1.353 1.342-2.023 2.019-.1.1-.183.2-.271.309l-.217.259.345.364.114-.1q1.076-.912 2.16-1.815c1.575-1.318 3.2-2.674 4.759-4.066A110.888 110.888 0 0 0 70.8 58.4c2.286-2.9 4.534-5.884 6.708-8.771L79.34 47.2c.775-1.026 1.542-2.07 2.284-3.081 1.264-1.72 2.554-3.478 3.888-5.153l.029-.036c4.633-5.815 9.885-12.406 15.13-18.679 2.051-2.454 4.369-4.762 6.61-6.995l.913-.91a48.094 48.094 0 0 1 14.224-10.069l.109-.049-.018-.117a2.21 2.21 0 0 0-.493-1.342.675.675 0 0 0-.455-.162zM31.729 72.949a1.8 1.8 0 0 0-1.384.639 1.467 1.467 0 0 0 .129 2.27l.052.042a1.788 1.788 0 0 0 1.13.4 2.023 2.023 0 0 0 1.513-.717 1.529 1.529 0 0 0 .393-1.125 1.491 1.491 0 0 0-.553-1.037 2.019 2.019 0 0 0-1.28-.472zm49.935-14.5c-.1 8.081.809 11.389 6.657 16.34q.462.391.966.8l.178.144.071-.218a26.053 26.053 0 0 0 1.26-6.606v-.11c.058-1.769.08-2.431-.643-3.043a10.692 10.692 0 0 0-1.716-1.029 15.3 15.3 0 0 1-2.65-1.8 17.451 17.451 0 0 1-3.271-3.74 16.621 16.621 0 0 0-.318-.463l-.532-.763zM80.769 60a62.04 62.04 0 0 0-.776 2.063 27.521 27.521 0 0 1-2.088 4.788 5.854 5.854 0 0 0-.491 5.224c.2.63.369 1.288.533 1.924.079.307.3 1.147.3 1.147l.015.057.194-.2c2.256-2.278 3.405-8.853 2.616-14.968L81 59.44zm-36.31 13.989.074.3.637-.089a57.613 57.613 0 0 0 1.584-.235l.524-.084a17.021 17.021 0 0 0 1.969-.39c.9-.254 1.8-.538 2.676-.813l.048-.015c.747-.235 1.52-.478 2.285-.7a5.4 5.4 0 0 0 2.991-2.191l.262-.393zm36.114-21.777c-.26.558-.505 1.163-.742 1.748a18.268 18.268 0 0 1-2.04 4.04c-1.7 2.315-1.492 4.742-1.286 7.09a22.957 22.957 0 0 1 .13 2.742v.026l.283.081.013-.022c3.243-5.548 4.533-10.67 3.945-15.659l-.066-.553zM39.967 66.843c.415 0 .748.009 1.049.029q.272.018.531.018a5.04 5.04 0 0 0 4.341-2.177 15.328 15.328 0 0 1 2.875-2.65c.484-.377.967-.753 1.424-1.147l.429-.369-.559.094c-.687.116-1.372.224-2.054.33l-.119.019c-1.763.275-3.586.56-5.342.98a5.875 5.875 0 0 0-2.28 1.443l-.285.244c-.659.56-1.255 1.162-1.944 1.859-.326.331-.645.653-.99.992l-.252.247.9.058c.3.02.5.034.7.037h.935c.215-.004.428-.007.641-.007zm20.3-7.976c-6.8.32-11.77 2.712-15.206 7.314l-.039.051.17.569.143-.036c.764-.191 1.53-.374 2.3-.556 1.973-.47 3.994-.951 5.939-1.574a4.269 4.269 0 0 0 1.626-1.247 8.8 8.8 0 0 1 .8-.77c1.058-.859 2.15-1.716 3.113-2.473l1.649-1.3zm-19.96 3.46c-.65.093-1.312.171-1.953.247a32.84 32.84 0 0 0-4.762.8 4.781 4.781 0 0 0-1.955 1.448c-.264.272-.53.546-.8.776l-.08.068.186.581 1.232.122c1.318.13 2.648.262 3.958.375h.045a.947.947 0 0 0 .615-.278c.951-.995 1.892-2 2.85-3.022l1.109-1.183zm-15.922 1.81-.076.549 1.338.323c1.356.328 2.76.668 4.146.977a.4.4 0 0 0 .088.009 1.07 1.07 0 0 0 .667-.343c.377-.406.735-.831 1.051-1.206l.576-.68zm57.079-12.726c.011.54 0 1.092-.009 1.579a15.347 15.347 0 0 0 .2 3.52 9.385 9.385 0 0 0 1.908 3.465 18.172 18.172 0 0 0 2.674 2.8c.111.094.224.188.338.279a20.918 20.918 0 0 0 2.518 1.649c.439.259.879.518 1.334.8l.29.181-.156-1.1c-.063-.456-.122-.887-.2-1.314-.4-2.088-.89-4.08-2.566-5.5a6.441 6.441 0 0 0-.96-.67 5.97 5.97 0 0 1-.884-.629 16.736 16.736 0 0 1-1.738-1.81l-.146-.168a22.655 22.655 0 0 1-1.583-2.138l-.046-.066c-.22-.322-.444-.649-.681-.979l-.3-.417zm-13.981 6c-5.125.091-8.8 3.2-11.834 6.11l-.019.019.159.252.026-.009a49.409 49.409 0 0 0 11.765-6.086l.405-.294zM25.3 63.235l-.07.069.059.431 6.645-.691-3.3-2.007zm3.624-2.46.745.449a8.086 8.086 0 0 0 4.2 1.6 5.022 5.022 0 0 0 1.077-.12c1.225-.269 2.489-.438 3.712-.6a93.59 93.59 0 0 0 1.636-.228l.486-.073-7.624-3.883zm12.1-6.951a.412.412 0 0 0-.178.036 294.374 294.374 0 0 0-5.527 2.681l-1.846.909.232.151a22.838 22.838 0 0 0 7.824 3.674 3.965 3.965 0 0 0 .819.078 11.124 11.124 0 0 0 1.706-.18l.329-.052c1.617-.246 3.219-.525 4.769-.8l2.3-.4-.4-.217c-.559-.3-1.122-.6-1.687-.893-1.305-.686-2.656-1.4-3.947-2.161a26.308 26.308 0 0 1-2.2-1.513l-.052-.039c-.409-.3-.833-.614-1.259-.906a1.753 1.753 0 0 0-.884-.368zm9.683-1.97a25.178 25.178 0 0 0-8.862 1.62l-.274.1.235.173c.4.291.772.583 1.137.866a21.363 21.363 0 0 0 2.357 1.67c1.313.759 2.687 1.44 4.015 2.1l.11.054c.48.238.961.477 1.439.719a4.162 4.162 0 0 0 1.927.463 5.482 5.482 0 0 0 1.119-.122c1.821-.376 3.653-.694 5.425-1 .7-.122 2.44-.429 2.44-.429l.1-.017-.41-.213c-.505-.263-1.022-.521-1.543-.781-1.23-.615-2.495-1.248-3.686-1.977a19.2 19.2 0 0 1-2.277-1.729c-.384-.323-.77-.647-1.16-.95l-.079-.062a1.7 1.7 0 0 0-.883-.457c-.38-.02-.759-.028-1.131-.028zm29.685-4.866a45.139 45.139 0 0 0-3.43 11.132v.026l.276.11.015-.022c2.012-2.918 3.075-6.363 3.445-11.171v-.028l-.294-.073zm1.079-.5a7.454 7.454 0 0 0 .9 4.834 20.331 20.331 0 0 0 4.413 5.316 18.165 18.165 0 0 0 1.524 1.159l.443.3-.208-.492a40.221 40.221 0 0 0-6.8-11.2l-.234-.267zM52.787 52s.534.467.672.583C55.24 54.1 59.828 57.6 63.946 57.6a6.125 6.125 0 0 0 2.77-.626l.272-.137-.268-.137c-3.926-2.088-8.374-4.453-13.551-4.733l-.456-.024zm49.489 5.059.281.091.7-1.158c.841-1.389 1.711-2.825 2.566-4.283a.927.927 0 0 0-.06-.824 156.55 156.55 0 0 0-1.775-2.758l-.836-1.282zm-.062-11.617a5.675 5.675 0 0 0-1.835 4.287c.192 1.582.394 3.162.6 4.742l.258 2.02.529.054.74-11.36zm-10.146 3.266a2.288 2.288 0 0 0-.235.012 2.194 2.194 0 0 0-1.458.717 1.986 1.986 0 0 0 .143 2.363l.031.027a1.378 1.378 0 0 0 .907.315c.046 0 .091 0 .137-.006a1.792 1.792 0 0 0 1.213-.622 2 2 0 0 0 .1-2.55 1.287 1.287 0 0 0-.838-.256zm11.688-12.535c-1.6 4.976-.474 11.495 2.514 14.532l.147.149.834-1.452c.731-1.271 1.473-2.559 2.156-3.845a1.343 1.343 0 0 0-.153-1.25 35.142 35.142 0 0 1-5.2-8.152l-.17-.37zm-1.078-1.879c-1.57 1.814-2.759 3.384-2.606 5.683.108 1.612.079 3.233.049 4.95-.014.794-.028 1.594-.03 2.419v.5l.289-.412a10.241 10.241 0 0 0 2.163-6.471 35.784 35.784 0 0 1 .229-4.372c.062-.663.132-1.415.185-2.185l.032-.473zm1.491-5.434c-.15 1.649-.3 3.342-.429 5.01a2.629 2.629 0 0 0 .252 1.184 36.23 36.23 0 0 0 5.394 8.732.935.935 0 0 0 .133.132l.546.449.075-.219c.137-.4.279-.787.419-1.167a21.943 21.943 0 0 0 .8-2.461c.39-1.636.655-3.327.912-4.962l.016-.1a1.253 1.253 0 0 0-.383-1.019q-.564-.45-1.111-.913A42.651 42.651 0 0 1 104.6 27.1l-.247-.317zM70.6 44.073l.087.287h.092a1.85 1.85 0 0 0 .613-.091q.991-.349 1.986-.689c2.04-.7 4.148-1.429 6.173-2.286a6.509 6.509 0 0 0 1.884-1.447c.261-.256.522-.511.789-.737l.106-.212-.382-.138zm25.333-17.467c-3.015 4.181-4.645 9.243-4.981 15.476v.031l.31.036.006-.031a64.018 64.018 0 0 1 4.939-15.355l.013-.028-.267-.155zm-28.67 6.757c-.2.061-.406.126-.61.2-.638.236-1.274.479-1.91.722-1.427.544-2.9 1.108-4.381 1.589a3.216 3.216 0 0 0-2.123 1.826c-.112.248-.248.492-.378.729l-.189.344-.023.068.177.515 1.586-.212c1.765-.236 3.591-.48 5.384-.744.19-.028.385-.219.58-.569.607-1.092 1.2-2.19 1.81-3.31l.745-1.371zm-16.2 5.437.051.5 1.324-.011c1.378-.011 2.8-.023 4.218-.061.3-.008.565-.43.615-.515.214-.355.409-.727.635-1.158l.5-.939zM75.2 30.479c-1.966.692-4 1.408-6 2.166a2.328 2.328 0 0 0-.953 1.033l-.056.09c-.589.945-1.165 1.92-1.722 2.863l-.712 1.2.409.571 1.806-.685q3.759-1.426 7.513-2.864a.928.928 0 0 0 .5-.514c.364-1.133.719-2.3 1.032-3.324l.4-1.321zM50.9 38.1l.144.26 7.6-2.285-2.944-2.122zm52.587-11.412c-2.1 3.3-3.259 6.919-3.019 9.451l.052.265.222-.17c.058-.045.1-.079.142-.117 2.1-1.976 2.429-4.561 2.6-7.258a13.315 13.315 0 0 1 .177-1.341c.041-.252.079-.482.114-.723v-.027l-.279-.1zM55.911 33.76l.969.6c.693.433 1.347.842 2.028 1.226a.963.963 0 0 0 .463.1 1.333 1.333 0 0 0 .45-.076 925.53 925.53 0 0 0 6.38-2.378l1.964-.738-6.146-4.071zM86.4 26.142c-.69.277-1.38.548-2.068.818-1.8.707-3.66 1.436-5.431 2.258a4.07 4.07 0 0 0-1.5 1.941 14.189 14.189 0 0 0-.739 1.939c-.105.321-.212.646-.332.986l-.109.305.307-.1c.143-.047.268-.084.379-.116a2.6 2.6 0 0 0 .546-.2l1.165-.647c2.048-1.138 4.167-2.314 6.223-3.524a2.894 2.894 0 0 0 .947-1.285 14.025 14.025 0 0 0 .564-1.458L86.37 27c.074-.212.15-.431.233-.658l.122-.333zm21.558-10.8c-.187.464-.378.927-.569 1.39-.437 1.058-.89 2.151-1.283 3.26-.19.539-.328 1.1-.462 1.649a14.5 14.5 0 0 1-.542 1.862 4.233 4.233 0 0 0 1.069 4.741c1.259 1.363 2.632 2.73 3.844 3.937q.825.823 1.647 1.65l.081.082.731-.365-.023-.117c-.129-.674-.253-1.349-.376-2.025-.282-1.549-.574-3.151-.947-4.723-.274-1.154-.665-2.3-1.043-3.4-.151-.439-.3-.874-.442-1.312a21.015 21.015 0 0 1-1.379-6.57v-.027l-.295-.057zM62.55 27.827l.44.4c.451.41.917.833 1.386 1.231a10.661 10.661 0 0 0 4.267 2.4 2.771 2.771 0 0 0 .663.114.912.912 0 0 0 .3-.045c2.224-.759 4.436-1.539 6.779-2.365l2.413-.849-.438-.145a18.7 18.7 0 0 1-6.327-3.516 21.537 21.537 0 0 1-2.461-2.467l-.1-.114zm31.484-4.994c-.577.252-1.161.493-1.746.733l-.034.014a34.922 34.922 0 0 0-4.316 2.009 4.426 4.426 0 0 0-1.408 1.794c-.172.314-.343.626-.531.9l-.076.114.546.491 8.051-5.609-.371-.5zM76.97 20.019a3.741 3.741 0 0 0-.515.037 16.827 16.827 0 0 0-6.17 2.161l-.1.058.025.113a1.124 1.124 0 0 1 .018.114.457.457 0 0 0 .107.3c.81.773 1.446 1.35 2.063 1.871a18.351 18.351 0 0 0 5.335 3.309 4.41 4.41 0 0 0 1.57.331 3.182 3.182 0 0 0 1.34-.3c1.392-.633 2.795-1.2 4.279-1.8.637-.258 1.27-.514 1.913-.779l.4-.163-.407-.132a21.283 21.283 0 0 1-7.492-3.86c-.2-.166-.389-.338-.578-.515a3.246 3.246 0 0 0-.142-.127 2.388 2.388 0 0 0-1.646-.618zm24.947 7.551.254.158.019-.02c1.74-1.841 2.3-4.153 2.844-6.388l.19-.775-.022-.14-.461-.19-.031-.012zm-21.74-7.72a27.2 27.2 0 0 0-1.379.035l-.42.021.33.259c2.688 2.116 5.386 4.063 8.824 4.628a3.035 3.035 0 0 0 .472.046 1.064 1.064 0 0 0 .429-.077c1.406-.609 2.816-1.244 4.179-1.857l1.786-.8-.474-.1c-.8-.168-1.59-.342-2.381-.517a52.489 52.489 0 0 0-11.366-1.639z"/>
                    <path id="Path_212" data-name="Path 212" class="cls-4" d="M43.539 149.6a.589.589 0 0 1-.141-.018 1.169 1.169 0 0 1-.445-.238 12.693 12.693 0 0 1-1.053-.994 26.192 26.192 0 0 0-.526-.527 35.134 35.134 0 0 1-10.531-19.56 33.035 33.035 0 0 1 .179-13.142l.113-.5-.376.355a3.425 3.425 0 0 0-.8.985 56.192 56.192 0 0 1-7.937 11.839 29.573 29.573 0 0 1-16.185 10.387c-1.271.308-2.584.549-3.853.782-.582.107-1.185.217-1.727.335l-.088-.024a4.924 4.924 0 0 0-.075-.316 1.157 1.157 0 0 1-.061-.679q.824-1.544 1.64-3.094l.065-.121c1.908-3.612 3.88-7.346 6-10.923 2.765-4.669 7.283-7.663 13.428-8.9a56.266 56.266 0 0 1 6.841-.9 4.524 4.524 0 0 0 4.189-2.824q.677-1.525 1.367-3.045c1-2.215 2.036-4.506 2.991-6.809.609-1.47 1.1-2.95 1.625-4.516.238-.713.468-1.4.709-2.093l.085-.243-.256.036a1.556 1.556 0 0 1-.16.014.374.374 0 0 0-.284.091c-3.809 4.276-8.824 7.651-15.784 10.623A1.475 1.475 0 0 0 21.4 107.1a2.241 2.241 0 0 1-1.927 2.047 2.308 2.308 0 0 1-.4.035 2.157 2.157 0 0 1-.507-.06 1.931 1.931 0 0 1-1.3-1.037 2.376 2.376 0 0 1 .576-2.7 2.807 2.807 0 0 1 1.758-.632 1.969 1.969 0 0 1 .463.052 1.169 1.169 0 0 1 .5.244 1.587 1.587 0 0 0 .659.368 1.113 1.113 0 0 0 .262.031 2.027 2.027 0 0 0 .931-.3 50.672 50.672 0 0 0 17.542-15.324 11.228 11.228 0 0 0 1.6-4.2c.121-.525.242-1.051.388-1.558a44.51 44.51 0 0 0 1.2-5.513v-.026l-.275-.11-.157.222c-.105.148-.211.3-.31.45-4.825 7.4-9.786 12.462-15.613 15.927A53.629 53.629 0 0 1 8.709 101.8l-.193.036a3.559 3.559 0 0 1-.65.086 1.073 1.073 0 0 1-.255-.028.929.929 0 0 1-.559-.426l.241-.964c.348-.6.7-1.207 1.06-1.814a148.648 148.648 0 0 0 2.322-4.052c2.007-3.68 4.505-8.26 8.066-11.857a25.206 25.206 0 0 1 14.984-7.7 60.344 60.344 0 0 1 6.917-.32h.039c1.074-.009 2.184-.019 3.305-.054h.126l3.63-18.318-.524-.119-.062.077A37.658 37.658 0 0 1 34.11 67.06l-.1.046.007.107c.111 1.6-.226 2.3-1.288 2.683a2.574 2.574 0 0 1-.864.176 1.412 1.412 0 0 1-.329-.037 1.355 1.355 0 0 1-.79-.572 2.165 2.165 0 0 1-.264-1.708l.108.154c.171.244.309.472.43.674a2.441 2.441 0 0 0 .751.919.791.791 0 0 0 .21.083 1.066 1.066 0 0 0 .249.028 1.814 1.814 0 0 0 1.13-.452.742.742 0 0 0 .293-.641 2.123 2.123 0 0 0-1.1-1.555.587.587 0 0 0-.141-.017 2.485 2.485 0 0 0-.981.363c-.243.123-.5.252-.769.362l-.175.071a2.047 2.047 0 0 1 .35-.757 1.492 1.492 0 0 1 1.276-.66 3.342 3.342 0 0 1 .781.108 8.542 8.542 0 0 1 .9.279l.067.024.587-.463c.364-.3.739-.614 1.12-.906a45.478 45.478 0 0 0 11.52-12.586 13.93 13.93 0 0 0 1.964-4.873c.31-1.757.648-3.529.976-5.243.22-1.149.437-2.285.647-3.422.074-.4.118-.818.164-1.261.025-.235.052-.489.086-.769v-.027l-.285-.092-2.577 4.604a67.922 67.922 0 0 1-12.387 16.384c-4.127 3.925-9.048 6.52-13.736 8.841-.216.107-.429.22-.643.334a12.409 12.409 0 0 1-1.327.638 1.513 1.513 0 0 1-.528.113.753.753 0 0 1-.174-.019c-.335-.081-.467-.437-.363-.976a10.085 10.085 0 0 1 .533-1.89q.915-2.243 1.823-4.491l.019-.046c1.824-4.5 3.71-9.16 5.671-13.693a20.807 20.807 0 0 1 7.008-9.17 38.408 38.408 0 0 1 12.4-5.253c1.806-.478 3.594-1.088 5.324-1.677l.5-.169a1.489 1.489 0 0 0 .817-.843c.455-1.381.893-2.78 1.317-4.132.725-2.316 1.475-4.71 2.314-7.04 1.157-3.211 2.727-7.425 4.619-11.549A33.156 33.156 0 0 1 65.137.93c.5-.66.857-.93 1.219-.93a.811.811 0 0 1 .194.024A3.742 3.742 0 0 1 67.8.8a4.646 4.646 0 0 0 .595.387l.186.109-.067.109a4.48 4.48 0 0 1-.295.453 51.772 51.772 0 0 0-7.279 13.207 3.133 3.133 0 0 0 0 1.975 18.271 18.271 0 0 0 5.1 7.7 23.667 23.667 0 0 1 3.06 3.142c.323.428.651.854.98 1.282a39.7 39.7 0 0 1 4.074 6.019c2.5 4.911 2.48 10.367 2.185 14.573-.185 2.626-.305 5.3-.422 7.889l-.005.12a510.22 510.22 0 0 1-.233 4.857 1.6 1.6 0 0 1-.231.61 11.54 11.54 0 0 0-.085.163l-.165-.083a1.329 1.329 0 0 1-.515-.349l-.239-.351c-1.811-2.646-3.684-5.382-5.457-8.119-5.295-8.17-8.271-15.937-9.1-23.745-.254-2.4-.305-4.806-.355-7.131v-.078c-.021-1.01-.042-1.964-.079-2.9v-.027l-.292-.054-.01.024c-4.859 11.148-4.387 22.854 1.445 35.787l.064.143.374-.167a2.029 2.029 0 0 1 .241-.1 2.521 2.521 0 0 1 .743-.116 2.109 2.109 0 0 1 .5.058 1.891 1.891 0 0 1 1.165.836 2.605 2.605 0 0 1-.266 3.2 2.2 2.2 0 0 1-1.559.677 1.956 1.956 0 0 1-.459-.054 1.826 1.826 0 0 1-.494-.2 2.342 2.342 0 0 1-1.045-2.628 1.808 1.808 0 0 0-.309-1.868 29.084 29.084 0 0 1-5-12.926l-.269-2.137h-.514l-3.1 17.1.1.054c.845.443 1.67.859 2.469 1.262l.036.018c1.691.852 3.288 1.658 4.807 2.587C66.8 67.436 71.564 74.4 72.645 83.381c.393 3.267.9 6.573 1.389 9.77l.011.074c.286 1.871.582 3.807.853 5.712a1.665 1.665 0 0 1-.164.747 6.23 6.23 0 0 0-.089.25l-.437-.1a1.177 1.177 0 0 1-.531-.232q-1.664-1.6-3.334-3.186c-3.705-3.535-7.518-7.172-11.157-10.86a30.75 30.75 0 0 1-8.424-16.861c-.162-.959-.3-1.937-.431-2.884l-.2-1.413-.3-.009L49.492 66c-1.608 7.757-3.269 15.774-6.091 23.3l-.044.119.107.069c.3.193.593.375.877.552l.041.026c.585.364 1.189.741 1.75 1.138 5.487 3.885 8.922 7.623 11.138 12.121a31.131 31.131 0 0 1 3.023 12.7c.152 3.646.113 7.362.075 10.955a616.49 616.49 0 0 0-.031 3.589 2.265 2.265 0 0 1-.239.824 7.039 7.039 0 0 0-.107.258c-.087-.037-.176-.072-.265-.107a2.146 2.146 0 0 1-.759-.413l-.6-.611c-2.078-2.129-4.21-4.314-6.221-6.54a43.451 43.451 0 0 1-6.619-9.411 32.267 32.267 0 0 1-3.413-20.799l.005-.029-.295-.087-.012.027c-.294.684-.57 1.355-.839 2.011-.576 1.4-1.12 2.73-1.775 4.007-1.909 3.72-3.923 7.418-5.871 10.993l-.526.965a1.027 1.027 0 0 0 .243 1.5 80.616 80.616 0 0 1 3.618 3.5c4.277 4.409 6.541 8.7 7.124 13.5a107.847 107.847 0 0 1 .3 16.568l-.072 2.207a.754.754 0 0 1-.229.589.4.4 0 0 1-.246.079zm-.579-1.524.644-.121.03-1.675c.032-1.708.065-3.474.069-5.211a1.07 1.07 0 0 0-.523-.833c-.78-.341-1.565-.64-2.4-.957l-1.236-.475zm-4.1-8.914v.026c-.06.424-.121.826-.179 1.213-.151 1.008-.281 1.874-.36 2.766a1.7 1.7 0 0 0 .481 1.1c.726.832 1.489 1.664 2.3 2.545l1.019 1.111.256-.155-3.22-8.64zm-3.331-6.929c-.39 1.594-.768 3.139-1.133 4.687a1.034 1.034 0 0 0 .105.708 491.136 491.136 0 0 0 2.436 4.021l.97 1.591.09-.37a16.985 16.985 0 0 0-1.833-12.07l-.194-.375zm1.287-1.542c.2.6.387 1.225.568 1.826a30.383 30.383 0 0 0 1.657 4.581A5.487 5.487 0 0 0 41.16 139c.244.155.519.331.768.506a3.142 3.142 0 0 0 1.048.4c.211.055.413.108.624.177l.214.07-.043-1.573c-.037-1.4-.075-2.853-.15-4.294a1.109 1.109 0 0 0-.511-.715l.6-.413-.251-1.45c-.25-1.45-.508-2.949-.8-4.433-.06-.3-.426-.59-.721-.743-1.808-.937-3.661-1.877-5.454-2.787l-2.024-1.028.476 1.707c.371 1.337.754 2.72 1.184 4.1a2.275 2.275 0 0 0 .888 1.113c1.475.982 2.993 1.954 4.461 2.893l1.46.936a395.403 395.403 0 0 0-4.473-2.261l-1.76-.882zm-34.983 7.534.028.471v.04l1.324-.373a764.976 764.976 0 0 0 5.508-1.565.726.726 0 0 0 .4-.485c.27-1.061.529-2.123.787-3.183l.354-1.456zm6.548-6.952c-1.306.083-2.54.161-3.77.269a1.117 1.117 0 0 0-.735.571 57.157 57.157 0 0 0-2.726 5.755l-.213.539 9.3-7.253zm24.9-7.656c-.2.815-.417 1.738-.655 2.639-.07.264-.167.526-.261.779a6.25 6.25 0 0 0-.339 1.125l-.041.239a5.465 5.465 0 0 0-.082 2.246c.338 1.308.772 2.569 1.231 3.9l.034.1c.176.513.355 1.032.529 1.561l.122.367.17-.347c2.528-5.132 1.242-9.988-.16-13.645l-.181-.473zm-16.236 2.257c-.474.393-.96.786-1.45 1.184l-.1.085c-1.344 1.087-2.733 2.211-4.037 3.439a5.818 5.818 0 0 0-1.238 2.306l-.116.317a14.026 14.026 0 0 0-.513 1.929l-.009.04c-.064.295-.13.6-.206.91l-.057.233.237-.04c.117-.02.221-.031.315-.041a1.407 1.407 0 0 0 .554-.136c1.428-.745 2.9-1.511 4.314-2.318a1.726 1.726 0 0 0 .731-.958c.483-1.7.943-3.435 1.388-5.11l.574-2.155zm7.285-6.053a19.393 19.393 0 0 1-2.372 1.958 11.133 11.133 0 0 0-3.777 3.908 41.809 41.809 0 0 0-1.749 4.481l-.023.067a70.846 70.846 0 0 1-.7 1.956l-.044.119.768.488.09-.093a98.546 98.546 0 0 1 1.574-1.585 41.527 41.527 0 0 0 3.647-3.947 7.442 7.442 0 0 0 1.08-2.581c.136-.483.273-.973.45-1.422.166-.425.351-.852.53-1.266l.024-.056c.26-.6.529-1.22.761-1.865l.009-.025-.253-.156zM8.6 125.254c-1.077 0-1.585.993-1.993 1.79-.446.869-.932 1.733-1.446 2.648-.239.426-.854 1.53-.854 1.53l-.029.052.279-.01c2.936-.1 5.71-.2 8.013-2.2a146.621 146.621 0 0 1 3.214-2.683c.451-.369 1.609-1.325 1.609-1.325l.078-.065-7.792.431-.167.035a2.446 2.446 0 0 0-.426-.145 2.082 2.082 0 0 0-.486-.058zM59.2 130l.511-.24.01-1.562c.012-1.571.024-3.194 0-4.79a1.225 1.225 0 0 0-.552-.92 213.898 213.898 0 0 0-4.11-2.139l-1.869-.958zm-27.326-16.068a30.871 30.871 0 0 0-.543 14.168l.086.532.216-.493c2.287-5.223 1.56-10.109.547-14.2l-.14-.567zm20.313 6.076c-.111.788-.216 1.526-.306 2.265a.823.823 0 0 0 .159.6q1.977 2.2 3.973 4.378l1.1 1.2.325-.332-5.072-9.374zM32.943 115.8c.395 1.837.8 3.737 1.234 5.6a1.474 1.474 0 0 0 .688.79 494.382 494.382 0 0 0 6.293 3.717 1.019 1.019 0 0 0 .276.105c.074.018.153.032.233.045.1.017.167.029.236.046l.238.058-.046-.24c-.641-3.372-5.3-8.782-9.243-11.862l-.344-.269zm-3.918-.118c-3.244 2.346-4.749 5.745-6.126 9.315l-.046.119.608.4L29.706 116l-.593-.386zm-14.913 3.406a2.625 2.625 0 0 0-1.927.916c-.987 1.022-1.972 2.073-2.926 3.089l-1.28 1.361.322.615 1.843-.043c1.308-.028 2.643-.057 3.954-.119a10.424 10.424 0 0 0 7.251-3.083 30.5 30.5 0 0 1 2.376-2.089l.046-.038c.31-.253.607-.5.878-.729l.38-.325-2.513.248c-1.829.182-3.719.371-5.619.531a6.927 6.927 0 0 1-.592.026 4 4 0 0 1-.946-.1 2.476 2.476 0 0 1-.261-.078 3.577 3.577 0 0 0-.351-.105 2.709 2.709 0 0 0-.635-.078zm34.251-8.981v.028c-.017.286-.028.573-.039.859v.085a20.471 20.471 0 0 1-.155 2.125c-.092.632-.248 1.267-.4 1.88-.1.4-.195.791-.275 1.18a.992.992 0 0 0 .144.7c.873 1.254 1.757 2.5 2.714 3.849l1.139 1.607.079-.344c.774-3.381-.442-6.121-1.617-8.771a29.745 29.745 0 0 1-1.28-3.211l-.008-.027zm1.082.128.051.124c.268.653.525 1.311.782 1.969l.021.055a51.787 51.787 0 0 0 2.118 4.922 7.819 7.819 0 0 0 2.638 2.56 28.909 28.909 0 0 0 2.967 1.686c.436.225.869.449 1.3.681l.062.032.5-.257-.073-1.8c-.073-1.816-.147-3.693-.274-5.537-.025-.37-.653-.731-.967-.834l-.753-.246a25.915 25.915 0 0 1-7.841-3.562l-.086-.065zm-20.529 4.494c-8.308 1.067-11.812 1.989-14.421 3.8l-.338.233.408.052a27.133 27.133 0 0 0 3.42.216c5.209 0 9.248-1.477 11.08-4.052l.209-.293zm16.538-13.381c-.105.432-.194.9-.28 1.36a12.732 12.732 0 0 1-.914 3.257c-.99 2.032-.275 3.662.482 5.388.463 1.057.958 2.078 1.481 3.16.235.485.835 1.737.835 1.737l.036.075.123-.376c1.882-5.743.206-10.834-1.464-14.627l-.188-.427zm1.388 1.144c.7 2.076 1.369 4.037 2.063 6.005a2.17 2.17 0 0 0 .719.84 17.845 17.845 0 0 0 6.525 3.352c.648.189 1.268.408 1.987.661.348.123.714.252 1.105.385l.244.083-.037-.254a32.462 32.462 0 0 0-1.989-8.19 1.141 1.141 0 0 0-.674-.621 30.576 30.576 0 0 1-1.035-.231 27.99 27.99 0 0 1-9.344-4.2l-.392-.268zM19.5 105.281a1.85 1.85 0 0 0-1.83 1.4 1.471 1.471 0 0 0 1.14 1.97l.065.015a1.869 1.869 0 0 0 .386.041 1.913 1.913 0 0 0 1.832-1.508 1.529 1.529 0 0 0-.157-1.181 1.5 1.5 0 0 0-.962-.679 2.106 2.106 0 0 0-.474-.058zm23.548-13.058c-1.314 3.617-1.209 10.14.233 14.542l.173.527.546-2.221c.411-1.678.833-3.4 1.24-5.127a1.944 1.944 0 0 0-.037-.9 725.128 725.128 0 0 0-1.384-5.1l-.6-2.184zm.326-1.776q.339 1.19.657 2.336l.016.059c.6 2.149 1.168 4.178 1.821 6.193a3.5 3.5 0 0 0 1.5 1.533 28.365 28.365 0 0 0 8.692 3.673c.222.054.918.209.918.209l.066.015-.133-.288c-3-6.506-8.44-10.587-13.3-13.9l-.361-.247zM66.543.576c-.319 0-.628.232-1.035.775a28.745 28.745 0 0 0-3.425 5.4c-1.717 3.849-3.371 7.949-5.056 12.532a151.363 151.363 0 0 0-6.053 21.437c-.6 2.907-1.078 5.887-1.539 8.769l-.013.083c-.235 1.473-.479 3-.737 4.489l-.292 1.7c-.525 3.058-1.067 6.22-1.68 9.354l-.131.674c-.9 4.578-1.82 9.311-2.9 13.926-1.044 4.485-2.306 8.947-3.406 12.785-.581 2.022-1.26 4.051-1.916 6.013l-.026.079c-.3.9-.6 1.792-.89 2.691-.043.133-.074.271-.105.408l-.074.317.472.171.059-.138q.537-1.267 1.085-2.529l.029-.067c.815-1.888 1.651-3.825 2.414-5.755A110.327 110.327 0 0 0 46.955 75c.733-3.607 1.4-7.283 2.035-10.838l.54-2.989c.224-1.234.435-2.492.639-3.709l.017-.1c.347-2.075.707-4.22 1.143-6.311L51.34 51c1.515-7.265 3.232-15.5 5.085-23.447.725-3.108 1.753-6.206 2.747-9.2l.407-1.227a47.813 47.813 0 0 1 8.166-15.362l.075-.093-.069-.1c-.373-.525-.693-.892-1.046-.978a.685.685 0 0 0-.162-.017zM8.08 100.9l.18.525 1.341-.311c1.285-.3 2.742-.632 4.145-.983a.96.96 0 0 0 .524-.637c.153-.526.279-1.062.391-1.534l.211-.878zm22.379-.184.2.234.5-.342c.415-.286.884-.608 1.342-.942l.431-.309a16.862 16.862 0 0 0 1.582-1.23c.691-.631 1.369-1.29 2.025-1.926l.041-.039c.559-.543 1.138-1.1 1.72-1.642a5.379 5.379 0 0 0 1.684-3.3l.057-.469zM8.495 99.685l-.03.093.228.334.019.025 5.625-3.592-3.852-.317zm12.992-7.525c-.545.378-1.1.742-1.633 1.094A32.678 32.678 0 0 0 15.96 96.1a4.756 4.756 0 0 0-1.093 2.168c-.113.361-.227.724-.365 1.052l-.041.1.429.436 1.156-.442c1.233-.472 2.482-.95 3.7-1.436a.919.919 0 0 0 .466-.541c.4-1.315.788-2.633 1.183-3.976l.457-1.553zm7.952-5.87c-.566.415-1.135.821-1.7 1.225l-.083.059c-1.459 1.041-2.956 2.11-4.329 3.266a5.842 5.842 0 0 0-1.386 2.309l-.141.351c-.334.791-.594 1.592-.894 2.52-.139.431-.281.872-.441 1.339l-.113.334.869-.367c.243-.1.425-.178.6-.264.261-.126.519-.259.777-.391l.057-.029c.5-.258 1.008-.519 1.52-.734a5.137 5.137 0 0 0 3.378-4.109 15.219 15.219 0 0 1 1.373-3.654l.015-.032c.251-.53.511-1.078.74-1.63l.217-.522zm36.918 2.91c.06.825.116 1.6.187 2.382a1.075 1.075 0 0 0 .279.644q2.048 1.926 4.114 3.833l1.2 1.111.4-.369-6.3-9.214zm6.718 7.274.277-.106-.188-1.35c-.215-1.541-.418-3-.638-4.442a.863.863 0 0 0-.45-.535c-1.143-.585-2.293-1.16-3.5-1.764l-1.64-.82zm-62.453-.6.868.068c.625.052 1.215.1 1.806.1a5.384 5.384 0 0 0 3.577-1.14c.973-.789 2.026-1.506 3.044-2.2.465-.316.916-.624 1.358-.935l.4-.283-8.566-.054zm27.134-15.738c-5.927 3.327-9.291 7.69-10.284 13.339l-.011.063.409.432.112-.1c.594-.51 1.194-1.015 1.794-1.518l.026-.022c1.535-1.29 3.122-2.623 4.576-4.048a4.257 4.257 0 0 0 .891-1.846 8.677 8.677 0 0 1 .363-1.043c.538-1.2 1.1-2.387 1.634-3.537l.918-1.965zm23.729.432c.035.511.087 1.038.133 1.5a19.523 19.523 0 0 1 .143 3.339 3.592 3.592 0 0 0 1.407 3.274c.645.551 1.25 1.156 1.891 1.8l.06.059c.277.277.561.561.86.851l.288.28-.02-.4c-.212-4.338-2.326-7.714-4.473-10.8L61.447 80zM18.8 84.151a.81.81 0 0 0-.651.2c-1.249 1.584-2.449 3.181-3.729 4.872l-1.239 1.639.276.031a38.982 38.982 0 0 0 4.359.295 16.373 16.373 0 0 0 4.287-.515 7.13 7.13 0 0 0 2.21-1.223l.27-.193c1.317-.932 2.621-1.9 3.882-2.83l1.894-1.4-.458-.013a200.57 200.57 0 0 0-1.91-.043c-1.49-.029-3.01-.059-4.5-.164a26.442 26.442 0 0 1-2.653-.368l-.037-.007c-.509-.088-1.035-.179-1.555-.25a3.346 3.346 0 0 0-.446-.031zm42.935-5.271a18.265 18.265 0 0 0 10.518 10.83l.252.105-.215-1.731c-.207-1.666-.4-3.226-.628-4.792a1.056 1.056 0 0 0-.725-.691c-.053-.012-.425-.1-.617-.143a22.95 22.95 0 0 1-8.342-3.758l-.416-.3zm-5.15-6.909c.061.719.15 1.463.236 2.183a27.5 27.5 0 0 1 .3 5.219 5.86 5.86 0 0 0 1.919 4.886c.467.477.913.987 1.343 1.48.209.239.786.889.786.889l.039.044.085-.262c.987-3.045-.953-9.432-4.417-14.542l-.339-.5zM43.546 75.6c-4.537 2.375-6.413 6.8-7.815 10.755l-.009.026.256.154.018-.02a49.13 49.13 0 0 0 7.764-10.7l.23-.444zm-16.1 1.993a.917.917 0 0 0-.38.071 25.039 25.039 0 0 0-8.2 5.9l-.2.213.289.05c.485.083.952.175 1.407.265a21.407 21.407 0 0 0 2.858.435c1.19.071 2.371.081 3.369.081h2.899a4.44 4.44 0 0 0 2.875-1.059c1.446-1.143 2.931-2.241 4.368-3.3.6-.443 2.012-1.495 2.012-1.495l.079-.059-.462-.007a95.3 95.3 0 0 0-1.315-.008h-.735c-1.311 0-2.593-.009-3.866-.117a19.322 19.322 0 0 1-2.812-.525 37.55 37.55 0 0 0-1.467-.33l-.1-.02a3.184 3.184 0 0 0-.614-.093zm29.232-7.411C60.243 77.446 62.545 80 70 81.8q.589.143 1.223.281l.225.049-.035-.227a26.046 26.046 0 0 0-1.855-6.466l-.047-.1c-.747-1.607-1.026-2.208-1.948-2.431a10.727 10.727 0 0 0-2-.151 15.344 15.344 0 0 1-3.183-.425 17.523 17.523 0 0 1-4.611-1.877c-.155-.09-.313-.175-.516-.284l-.8-.431zM52.9 65.1c.019.608.071 1.233.126 1.894a18.273 18.273 0 0 1 0 4.524c-.478 2.83.807 4.9 2.05 6.91a23.2 23.2 0 0 1 1.353 2.392l.011.023.289-.054v-.026c.394-6.408-.765-11.561-3.542-15.755l-.308-.464zM39.417 75.259A27.372 27.372 0 0 0 28.3 77.146l-.418.182.093.024s.689.177.864.22a27.944 27.944 0 0 0 6.352.825c3.556 0 6.07-.954 7.472-2.837l.182-.244-.3-.008c-1.014-.023-2.062-.049-3.128-.049zM53.33 63.987c.249.469.48.949.7 1.415a15.359 15.359 0 0 0 1.77 3.056 9.428 9.428 0 0 0 3.266 2.242 18.229 18.229 0 0 0 3.654 1.308c.142.034.285.068.428.1a20.97 20.97 0 0 0 3 .346c.5.034 1.013.069 1.547.119l.341.032-.636-.915c-.263-.381-.511-.742-.773-1.083-1.3-1.688-2.636-3.246-4.773-3.763a6.448 6.448 0 0 0-1.161-.169 5.977 5.977 0 0 1-1.074-.167 16.746 16.746 0 0 1-2.369-.838l-.206-.085a22.8 22.8 0 0 1-2.379-1.2c-.384-.212-.745-.412-1.12-.609l-.454-.239zm-2.955-3.5v.028a45.065 45.065 0 0 0 1.959 11.479l.008.026.3-.025v-.026c.481-3.507-.124-7.061-1.963-11.522l-.011-.026zm-29.9 5.837.272.425 1.177-.6a222.811 222.811 0 0 0 3.741-1.942c.262-.14.31-.637.317-.735.031-.412.038-.832.045-1.318l.021-1.063zm30.633-6.742A7.479 7.479 0 0 0 54.1 63.5a20.442 20.442 0 0 0 6.341 2.774 18.154 18.154 0 0 0 1.884.353l.531.07-.408-.346a40.447 40.447 0 0 0-11.128-6.969l-.33-.133zm-31.1 6.193.246.168 5.77-5.443-3.588-.576zM32.524 54.2c-.167.16-.327.314-.478.476-.464.5-.922 1-1.381 1.5-1.034 1.13-2.1 2.293-3.2 3.38a3.2 3.2 0 0 0-1.065 2.578c.012.265 0 .537-.008.8l-.013.412.01.071.39.381 1.279-.871c1.484-1.01 3.018-2.054 4.515-3.1.157-.11.245-.368.261-.768.049-1.247.086-2.495.124-3.768l.042-1.56zm15.544-1.727-7.757 9.826.208.218.022-.01a1.918 1.918 0 0 0 .567-.385q.728-.756 1.463-1.505c1.507-1.542 3.064-3.136 4.483-4.8a6.482 6.482 0 0 0 1.031-2.136c.119-.348.236-.691.372-1.012v-.237zm14.165 4.184a1.635 1.635 0 0 0-.855.289 2.181 2.181 0 0 0-.979 1.293 1.992 1.992 0 0 0 1.193 2.047l.041.011a1.267 1.267 0 0 0 .3.036 1.5 1.5 0 0 0 .772-.227 1.785 1.785 0 0 0 .8-1.1 2 2 0 0 0-1.057-2.325.926.926 0 0 0-.214-.028zm-39.7 3 1.138.1c.815.077 1.586.15 2.364.188a1.224 1.224 0 0 0 .827-.384c1.584-1.689 3.2-3.438 4.626-4.98l1.422-1.538-7.327-.886zm51.934.066.293-.044.1-1.348c.125-1.618.254-3.291.36-4.974a.93.93 0 0 0-.426-.709c-.934-.568-1.9-1.128-2.828-1.668l-1.32-.78zm-5.3-10.35a5.664 5.664 0 0 0 .3 4.651q1.328 1.99 2.672 3.969l1.141 1.689.5-.189-4.463-10.48zm-30.881-1.281a266.077 266.077 0 0 0-4.381 4.62 2.315 2.315 0 0 0-.385 1.349l-.009.105c-.1 1.095-.173 2.211-.245 3.29l-.1 1.431.623.327 1.358-1.48q2.687-2.927 5.365-5.862a.922.922 0 0 0 .213-.682c-.182-1.149-.383-2.309-.577-3.432l-.236-1.36zM64.557 39.2c-.585 2.323-.938 4.258.237 6.243.825 1.394 1.532 2.858 2.28 4.407l.026.054c.332.688.672 1.392 1.034 2.112l.226.45.073-.5a10.231 10.231 0 0 0-.987-6.749 35.747 35.747 0 0 1-1.767-4c-.261-.661-.528-1.339-.823-2.039l-.183-.437zM25.792 51.383l.573.159c.623.174 1.2.336 1.794.479a13.18 13.18 0 0 0 3.084.427 8.493 8.493 0 0 0 1.812-.191 1.747 1.747 0 0 0 .887-.368 699.3 699.3 0 0 0 4.989-5.146L40.7 44.9l-.457.067a20.13 20.13 0 0 1-2.882.213 18.286 18.286 0 0 1-4.356-.522 21.633 21.633 0 0 1-3.312-1.1l-.139-.058zM66.368 40.4c.814 5.162 4.764 10.481 8.8 11.857l.2.068.089-1.671c.08-1.458.162-2.944.192-4.4a1.35 1.35 0 0 0-.7-1.048 35.316 35.316 0 0 1-8.327-4.954l-.319-.255zm-11.305-5.049c-.808 5.084.021 10.336 2.534 16.055l.013.029.293-.107-.009-.03a63.993 63.993 0 0 1-2.517-15.928v-.03l-.309-.019zm-8.73 3.855q-.737.835-1.478 1.656c-1.288 1.435-2.62 2.92-3.833 4.448a4.055 4.055 0 0 0-.461 2.4 14.177 14.177 0 0 0 .215 2.069c.05.327.1.666.147 1.023l.04.321.229-.229c.105-.106.2-.194.285-.272a2.6 2.6 0 0 0 .4-.425l.749-1.1c1.323-1.942 2.682-3.938 3.969-5.933a2.879 2.879 0 0 0 .266-1.572 13.748 13.748 0 0 0-.154-1.555v-.034c-.031-.23-.063-.466-.092-.715l-.041-.352zm17.1-5.527c.61 1.541 1.237 3.122 1.877 4.668a2.65 2.65 0 0 0 .76.944 36.419 36.419 0 0 0 8.759 5.387.911.911 0 0 0 .178.058l.69.157-.032-.229c-.058-.419-.105-.828-.152-1.23a21.838 21.838 0 0 0-.4-2.556c-.39-1.637-.917-3.266-1.425-4.841l-.031-.1a1.262 1.262 0 0 0-.8-.739q-.707-.149-1.4-.318a42.9 42.9 0 0 1-8.425-2.968l-.363-.173zm-27.2 4a2.656 2.656 0 0 0-1.535.535 16.751 16.751 0 0 0-4.528 4.696l-.064.1.074.089c.025.031.047.064.067.094a.463.463 0 0 0 .231.219c1.071.327 1.9.558 2.687.748a20.368 20.368 0 0 0 4.8.64c.49 0 .981-.024 1.459-.072a3.489 3.489 0 0 0 2.612-1.278C43 42.254 44 41.117 45.055 39.913c.444-.505.894-1.018 1.348-1.542l.28-.323-.423.064a29.1 29.1 0 0 1-4.359.367 17.128 17.128 0 0 1-4.075-.463q-.376-.091-.749-.2a3.607 3.607 0 0 0-.184-.049 2.737 2.737 0 0 0-.652-.084zm25.605-5.666v.027c-.39 3.887.211 7.64 1.568 9.795l.166.213.128-.248a1.8 1.8 0 0 0 .074-.168c.984-2.706.112-5.162-.951-7.648a13.362 13.362 0 0 1-.447-1.278 38.406 38.406 0 0 0-.225-.7l-.008-.026zm-10.182.814c-.409.493-.831.979-1.253 1.464a34.8 34.8 0 0 0-2.948 3.727 4.4 4.4 0 0 0-.449 2.232c-.013.362-.025.715-.068 1.042l-.017.136.71.195 4.669-8.609-.557-.279zm-.474-.693c-.788.207-1.575.406-2.361.6-4.048 1.021-8.23 2.076-12.108 4.273l-.365.207.411.084a30.245 30.245 0 0 0 5.956.764 13.33 13.33 0 0 0 4.015-.579 1.665 1.665 0 0 0 .792-.431 329.246 329.246 0 0 0 2.884-3.516l1.245-1.53zm9.527-12.254v.027c.042.5.081 1 .119 1.5.086 1.141.175 2.321.324 3.487.073.567.2 1.133.332 1.681a14.456 14.456 0 0 1 .356 1.905 4.25 4.25 0 0 0 3.094 3.757c1.736.652 3.5 1.234 5.21 1.8l.062.02c.719.237 1.437.474 2.154.716l.109.037.489-.653-.073-.094c-.42-.544-.835-1.092-1.249-1.64-.954-1.261-1.941-2.564-2.978-3.8-.763-.906-1.625-1.749-2.46-2.564-.339-.331-.669-.653-.994-.98a21.113 21.113 0 0 1-4.2-5.253l-.012-.025zm-.697 5.82.831 7.831.3.027.008-.026c.723-2.422.182-4.739-.342-6.979l-.18-.778-.1-.13z" transform="translate(73.977 16.249)"/>
                </g>
            </g>
        </g>
    </g>
</svg>
