<svg id="logo-goscwdom-kontra" xmlns="http://www.w3.org/2000/svg" width="186" height="46.813" viewBox="0 0 186 46.813">
    <defs>
        <clipPath id="clip-path">
            <path id="Rectangle_27" data-name="Rectangle 27" style="fill:none" d="M0 0h186v46.813H0z"/>
        </clipPath>
        <style>
            .cls-3{fill:#d08b62}.cls-4{fill:#fff}
        </style>
    </defs>
    <g id="Group_30" data-name="Group 30" style="clip-path:url(#clip-path)">
        <path id="Path_264" data-name="Path 264" class="cls-3" d="M65.2 14.511a36.1 36.1 0 0 0-9.859-9.048.369.369 0 0 0-.507.116.364.364 0 0 0 .116.5 35.367 35.367 0 0 1 9.659 8.865 34.772 34.772 0 0 1 6.982 20.63h-2.63a2.99 2.99 0 0 0-.161-3.072 2.355 2.355 0 0 0 .668-1.633 2.319 2.319 0 0 0-.955-1.885 2.382 2.382 0 0 0-1.214-.456 3.188 3.188 0 0 0-6.209 0 2.38 2.38 0 0 0-1.214.456 2.319 2.319 0 0 0-.956 1.885 2.356 2.356 0 0 0 .668 1.633 2.988 2.988 0 0 0-.462 1.151h-5.11v-8.914h13.968a.366.366 0 1 0 0-.731h-7.239l-3.083-3.021a.369.369 0 0 0-.258-.105h-.77L49.6 15.09h13.064a.366.366 0 1 0 0-.731H48.715L36.431 4.238a.369.369 0 0 0-.469 0L23.677 14.359H9.663a.366.366 0 1 0 0 .731h13.126l-7.03 5.792h-.77a.368.368 0 0 0-.258.105l-3.083 3.021h-7.54a.366.366 0 1 0 0 .731h14.273v8.918H13.2a2.988 2.988 0 0 0-.462-1.151 2.355 2.355 0 0 0 .668-1.633 2.319 2.319 0 0 0-.956-1.885 2.382 2.382 0 0 0-1.214-.456 3.191 3.191 0 0 0-4.224-2.261.366.366 0 1 0 .259.685 2.451 2.451 0 0 1 3.29 1.982.365.365 0 0 0 .388.321 1.626 1.626 0 0 1 1.721 1.614 1.626 1.626 0 0 1-.652 1.293.364.364 0 0 0-.057.531 2.263 2.263 0 0 1 .551 1.483 2.3 2.3 0 0 1-3.971 1.552.349.349 0 0 0-.041-.032v-1.088l1.4-1.389a.364.364 0 0 0 0-.517.37.37 0 0 0-.52 0l-.877.872v-1.949a.368.368 0 0 0-.736 0v3.21L6.416 33.5a.37.37 0 0 0-.52 0 .364.364 0 0 0 0 .517l1.779 1.768a2.293 2.293 0 0 1-3.341-.093 2.263 2.263 0 0 1-.028-2.992.364.364 0 0 0-.057-.531 1.626 1.626 0 0 1-.649-1.296 1.6 1.6 0 0 1 .657-1.3 1.614 1.614 0 0 1 1.064-.317.367.367 0 0 0 .388-.321 2.418 2.418 0 0 1 .429-1.1.364.364 0 0 0-.089-.51.369.369 0 0 0-.513.088 3.157 3.157 0 0 0-.5 1.12 2.379 2.379 0 0 0-1.215.456 2.319 2.319 0 0 0-.955 1.885 2.355 2.355 0 0 0 .668 1.633 2.991 2.991 0 0 0-.161 3.072H.738a34.773 34.773 0 0 1 6.986-20.637A35.213 35.213 0 0 1 36.162.731a35.666 35.666 0 0 1 16.625 4.11.37.37 0 0 0 .5-.151.365.365 0 0 0-.152-.495A36.41 36.41 0 0 0 36.162 0a35.945 35.945 0 0 0-16.5 3.952A36.434 36.434 0 0 0 7.133 14.506 35.5 35.5 0 0 0 0 35.944a.367.367 0 0 0 .368.366h3.541a3.037 3.037 0 0 0 3.858.347v4.629a.368.368 0 0 0 .736 0v-4.63a3.037 3.037 0 0 0 3.86-.348h21.411l-3.625 10.016a.368.368 0 0 0 .692.248l1.233-3.407h8.244l1.233 3.407a.368.368 0 0 0 .692-.248l-3.625-10.015h11.939a.366.366 0 1 0 0-.731H12.9a2.969 2.969 0 0 0 .338-1.189h45.846a2.969 2.969 0 0 0 .338 1.189h-6.057a.366.366 0 1 0 0 .731h6.6a3.037 3.037 0 0 0 3.858.347v4.629a.368.368 0 0 0 .736 0v-4.629a3.037 3.037 0 0 0 3.858-.347h3.542a.367.367 0 0 0 .368-.366A35.507 35.507 0 0 0 65.2 14.511M53.275 33.657h-2v-8.918h2zM36.2 4.995l19.28 15.887h-1.985L36.426 7.306a.37.37 0 0 0-.459 0l-8.585 6.828a.364.364 0 0 0-.057.514.369.369 0 0 0 .517.057L36.2 8.06l16.117 12.822H20.076l5.947-4.73a.364.364 0 0 0 .057-.514.37.37 0 0 0-.517-.057l-6.665 5.3h-1.986zM15.14 21.613h42.113l2.447 2.395H31.816a.366.366 0 1 0 0 .731h18.72v8.918H38.462v-5.1a.367.367 0 0 0-.368-.366H34.3a.367.367 0 0 0-.368.366v5.1H21.857v-8.918h7.553a.366.366 0 1 0 0-.731H12.7zm3.977 3.126h2v8.918h-2zm20.936 17.694h-7.714l2.217-6.124h3.279zm-5.387-13.508h3.061v4.732h-3.061zM64.6 35.732a.386.386 0 0 0-.042-.036v-1.084l1.4-1.389a.364.364 0 0 0 0-.517.37.37 0 0 0-.52 0l-.878.872v-1.949a.368.368 0 0 0-.736 0v3.21L62.47 33.5a.37.37 0 0 0-.52 0 .364.364 0 0 0 0 .517l1.779 1.768a2.293 2.293 0 0 1-3.205.047.365.365 0 0 0-.208-.224 2.258 2.258 0 0 1-.507-1.425v-.069a.355.355 0 0 0 .012-.088.342.342 0 0 0-.005-.052 2.26 2.26 0 0 1 .542-1.275.364.364 0 0 0-.057-.531 1.625 1.625 0 0 1-.652-1.293 1.6 1.6 0 0 1 .657-1.3 1.614 1.614 0 0 1 1.063-.317.368.368 0 0 0 .388-.321 2.449 2.449 0 0 1 4.859 0 .366.366 0 0 0 .388.321 1.626 1.626 0 0 1 1.721 1.614 1.626 1.626 0 0 1-.652 1.293.365.365 0 0 0-.057.531 2.263 2.263 0 0 1 .551 1.483 2.3 2.3 0 0 1-3.967 1.553"/>
        <path id="Path_265" data-name="Path 265" class="cls-3" d="M102.626 56.912h4.689a.367.367 0 0 0 .368-.366v-4.66a.367.367 0 0 0-.368-.366h-4.689a.367.367 0 0 0-.368.366v4.661a.367.367 0 0 0 .368.366m.368-4.661h3.954v3.928h-3.954z" transform="translate(-72.875 -36.806)"/>
        <path id="Path_266" data-name="Path 266" class="cls-3" d="M131.169 56.912h4.689a.367.367 0 0 0 .368-.366v-4.66a.367.367 0 0 0-.368-.366h-4.689a.367.367 0 0 0-.368.366v4.661a.367.367 0 0 0 .368.366m.368-4.661h3.953v3.928h-3.953z" transform="translate(-93.216 -36.806)"/>
        <path id="Path_267" data-name="Path 267" class="cls-3" d="M145.341 96.668h4.689a.367.367 0 0 0 .368-.366v-4.66a.367.367 0 0 0-.368-.366h-4.689a.367.367 0 0 0-.368.366V96.3a.367.367 0 0 0 .368.366m.368-4.661h3.953v3.929h-3.953z" transform="translate(-103.316 -65.207)"/>
        <path id="Path_268" data-name="Path 268" class="cls-3" d="M87.851 91.642V96.3a.367.367 0 0 0 .368.366h4.689a.367.367 0 0 0 .368-.366v-4.658a.367.367 0 0 0-.368-.366h-4.689a.367.367 0 0 0-.368.366m.736.366h3.953v3.929h-3.953z" transform="translate(-62.608 -65.207)"/>
        <path id="Path_269" data-name="Path 269" class="cls-3" d="M55.588 136.439a.367.367 0 0 0-.368-.366H34.095a.366.366 0 1 0 0 .731h21.126a.367.367 0 0 0 .368-.366" transform="translate(-24.036 -97.21)"/>
        <path id="Path_270" data-name="Path 270" class="cls-3" d="M163.555 136.072H142.5a.366.366 0 1 0 0 .731h21.059a.366.366 0 1 0 0-.731" transform="translate(-101.289 -97.21)"/>
        <path id="Path_271" data-name="Path 271" class="cls-3" d="M121.006 136.8h2.328a.366.366 0 1 0 0-.731h-2.328a.366.366 0 1 0 0 .731" transform="translate(-85.973 -97.21)"/>
        <path id="Path_272" data-name="Path 272" class="cls-4" d="M292.115 61.758v1.115a.342.342 0 0 1-.343.341h-1.12a.342.342 0 0 1-.343-.341v-1.212c0-1.529-.61-2.451-2-2.451-1.367 0-2 .922-2 2.451v8.978c0 1.529.635 2.451 2 2.451 1.392 0 2-.922 2-2.451v-3.4h-1.415a.342.342 0 0 1-.343-.341v-1.014a.342.342 0 0 1 .343-.341h2.878a.342.342 0 0 1 .343.341v4.658c0 2.572-1.221 4.271-3.857 4.271-2.612 0-3.833-1.7-3.833-4.271v-8.784c0-2.572 1.221-4.271 3.833-4.271 2.637 0 3.857 1.7 3.857 4.271" transform="translate(-202.697 -41.069)"/>
        <path id="Path_273" data-name="Path 273" class="cls-4" d="M323.622 61.757c0-2.6 1.294-4.271 3.906-4.271 2.637 0 3.931 1.674 3.931 4.271v8.784c0 2.572-1.294 4.271-3.931 4.271-2.612 0-3.906-1.7-3.906-4.271zm1.88 8.881c0 1.553.659 2.451 2.026 2.451 1.392 0 2.026-.9 2.026-2.451V61.66c0-1.529-.635-2.451-2.026-2.451-1.367 0-2.026.922-2.026 2.451z" transform="translate(-230.631 -41.068)"/>
        <path id="Path_274" data-name="Path 274" class="cls-4" d="M370.57 52.965v.512a.342.342 0 0 1-.343.341h-1.12a.342.342 0 0 1-.343-.341v-.217c0-1.529-.586-2.426-1.953-2.426s-1.953.9-1.953 2.4c0 3.81 5.737 4.174 5.737 8.954 0 2.572-1.245 4.247-3.857 4.247s-3.838-1.673-3.838-4.245v-.63a.342.342 0 0 1 .343-.341h1.1a.342.342 0 0 1 .343.341v.727c0 1.529.635 2.426 2 2.426s2-.9 2-2.426c0-3.785-5.713-4.149-5.713-8.93 0-2.651 1.249-4.283 3.873-4.246a3.83 3.83 0 0 1 3.72 3.854m-1.836-6.634-1.651 1.817a.345.345 0 0 1-.255.113h-.523a.341.341 0 0 1-.285-.531l1.225-1.817a.343.343 0 0 1 .285-.151h.949a.341.341 0 0 1 .255.569" transform="translate(-258.626 -32.692)"/>
        <path id="Path_275" data-name="Path 275" class="cls-4" d="M409.28 53.381v1.188a.342.342 0 0 1-.343.341h-1.121a.342.342 0 0 1-.343-.341v-1.285c0-1.529-.61-2.451-2-2.451-1.367 0-2 .922-2 2.451v8.978c0 1.529.635 2.451 2 2.451 1.391 0 2-.922 2-2.451V60.4a.342.342 0 0 1 .343-.341h1.121a.342.342 0 0 1 .343.341v1.77c0 2.572-1.221 4.271-3.857 4.271-2.612 0-3.833-1.7-3.833-4.271v-8.789c0-2.572 1.221-4.271 3.833-4.271 2.637 0 3.857 1.7 3.857 4.271m-1.885-7.05-1.651 1.817a.344.344 0 0 1-.255.113h-.542a.341.341 0 0 1-.284-.533l1.242-1.817a.344.344 0 0 1 .284-.149h.951a.341.341 0 0 1 .255.569" transform="translate(-286.196 -32.692)"/>
        <path id="Path_276" data-name="Path 276" class="cls-4" d="M461.8 75.067h-2.016a.342.342 0 0 1-.34-.295l-2.25-16.3a.342.342 0 0 1 .34-.387h1.166a.342.342 0 0 1 .34.294L461 72.543l1.864-14.143a.342.342 0 0 1 .34-.3h1.277a.343.343 0 0 1 .341.3l1.841 14.165 1.889-14.19a.342.342 0 0 1 .34-.3h.967a.342.342 0 0 1 .34.387l-2.226 16.3a.343.343 0 0 1-.34.3h-1.917a.343.343 0 0 1-.34-.293l-1.594-11.233-1.642 11.239a.343.343 0 0 1-.34.292" transform="translate(-325.821 -41.493)"/>
        <path id="Path_277" data-name="Path 277" class="cls-4" d="M533.666 58.081c2.661 0 3.882 1.6 3.882 4.222v8.566c0 2.6-1.221 4.2-3.882 4.2h-3.661a.342.342 0 0 1-.343-.341v-16.3a.342.342 0 0 1 .343-.341zm-.025 15.263c1.367 0 2.026-.849 2.026-2.4v-8.738c0-1.553-.659-2.4-2.051-2.4h-2.051v13.54z" transform="translate(-377.467 -41.493)"/>
        <path id="Path_278" data-name="Path 278" class="cls-4" d="M569.454 61.757c0-2.6 1.294-4.271 3.906-4.271 2.637 0 3.931 1.674 3.931 4.271v8.784c0 2.572-1.294 4.271-3.931 4.271-2.612 0-3.906-1.7-3.906-4.271zm1.88 8.881c0 1.553.659 2.451 2.026 2.451 1.392 0 2.026-.9 2.026-2.451V61.66c0-1.529-.635-2.451-2.026-2.451-1.367 0-2.026.922-2.026 2.451z" transform="translate(-405.825 -41.068)"/>
        <path id="Path_279" data-name="Path 279" class="cls-4" d="M615.627 75.042h-1.27a.342.342 0 0 1-.336-.272l-2.775-13.244v13.2a.342.342 0 0 1-.343.341h-.974a.342.342 0 0 1-.343-.341v-16.3a.342.342 0 0 1 .343-.341h2.038a.343.343 0 0 1 .336.272l2.751 13.292 2.655-13.29a.343.343 0 0 1 .337-.274h2.036a.342.342 0 0 1 .343.341v16.3a.342.342 0 0 1-.343.341h-1.12a.342.342 0 0 1-.343-.341V61.405l-2.655 13.362a.342.342 0 0 1-.336.275" transform="translate(-434.425 -41.493)"/>
    </g>
</svg>
